<svg width="83" height="67" viewBox="0 0 83 67" fill="none" xmlns="http://www.w3.org/2000/svg">
<path d="M68.8314 23.9692C68.6619 23.6733 68.451 23.3914 68.1535 23.1513L47.4035 6.40129C47.1061 6.16121 46.7568 5.99092 46.3903 5.85412C46.2865 5.81504 46.1758 5.79271 46.0652 5.762C45.7747 5.68383 45.4773 5.63358 45.1695 5.61962C45.0968 5.61404 45.0311 5.58333 44.9585 5.58333H20.7502C16.9356 5.58333 13.8335 8.08746 13.8335 11.1667V55.8333C13.8335 58.9125 16.9356 61.4167 20.7502 61.4167H62.2502C66.0647 61.4167 69.1668 58.9125 69.1668 55.8333V25.125C69.1668 25.0664 69.1288 25.0133 69.1219 24.9519C69.1046 24.7035 69.0458 24.4634 68.9455 24.2289C68.9109 24.1395 68.8798 24.053 68.8314 23.9692ZM57.3601 22.3333H48.4168V15.1141L57.3601 22.3333ZM20.7502 55.8333V11.1667H41.5002V25.125C41.5002 26.6688 43.046 27.9167 44.9585 27.9167H62.2502L62.2571 55.8333H20.7502Z" fill="#8F88E0"/>
<path d="M27.6665 33.5H55.3332V39.0833H27.6665V33.5ZM27.6665 44.6667H55.3332V50.25H27.6665V44.6667ZM27.6665 22.3333H34.5832V27.9167H27.6665V22.3333Z" fill="#8F88E0"/>
</svg>
