<svg xmlns="http://www.w3.org/2000/svg" xmlns:xlink="http://www.w3.org/1999/xlink" xmlns:lucid="lucid" width="5200" height="1530"><g transform="translate(500 140)" lucid:page-tab-id="0_0"><path d="M-1806.4-1259.2h7289.6v3841.6h-7289.6z" fill="#fff"/><path d="M160 386c0-3.3 2.7-6 6-6h148c3.3 0 6 2.7 6 6v148c0 3.3-2.7 6-6 6H166c-3.3 0-6-2.7-6-6z" stroke="#5e5e5e" stroke-width="3" fill="#fff"/><use xlink:href="#a" transform="matrix(1,0,0,1,165,385) translate(10.21604938271605 64.65277777777777)"/><use xlink:href="#b" transform="matrix(1,0,0,1,165,385) translate(34.907407407407405 64.65277777777777)"/><use xlink:href="#c" transform="matrix(1,0,0,1,165,385) translate(113.91975308641975 64.65277777777777)"/><use xlink:href="#d" transform="matrix(1,0,0,1,165,385) translate(1.6666666666666572 91.31944444444446)"/><path d="M160 566c0-3.3 2.7-6 6-6h148c3.3 0 6 2.7 6 6v148c0 3.3-2.7 6-6 6H166c-3.3 0-6-2.7-6-6z" stroke="#5e5e5e" stroke-width="3" fill="#fff"/><use xlink:href="#e" transform="matrix(1,0,0,1,165,565) translate(4.629629629629619 41.21527777777778)"/><use xlink:href="#f" transform="matrix(1,0,0,1,165,565) translate(29.320987654320977 41.21527777777778)"/><use xlink:href="#g" transform="matrix(1,0,0,1,165,565) translate(72.53086419753086 41.21527777777778)"/><use xlink:href="#h" transform="matrix(1,0,0,1,165,565) translate(19.475308641975303 67.88194444444446)"/><use xlink:href="#i" transform="matrix(1,0,0,1,165,565) translate(51.51234567901234 67.88194444444446)"/><use xlink:href="#j" transform="matrix(1,0,0,1,165,565) translate(93.48765432098766 67.88194444444446)"/><use xlink:href="#k" transform="matrix(1,0,0,1,165,565) translate(21.358024691358025 94.54861111111111)"/><use xlink:href="#c" transform="matrix(1,0,0,1,165,565) translate(102.77777777777779 94.54861111111111)"/><use xlink:href="#l" transform="matrix(1,0,0,1,165,565) translate(29.96913580246914 121.2152777777778)"/><use xlink:href="#m" transform="matrix(1,0,0,1,165,565) translate(76.82098765432099 121.2152777777778)"/><path d="M538.5 146c0-3.3 2.68-6 6-6h148c3.3 0 6 2.7 6 6v148c0 3.3-2.7 6-6 6h-148c-3.32 0-6-2.7-6-6z" stroke="#5e5e5e" stroke-width="3" fill="#fff"/><use xlink:href="#n" transform="matrix(1,0,0,1,543.4970450295498,145) translate(28.117283950617285 78.71527777777777)"/><use xlink:href="#o" transform="matrix(1,0,0,1,543.4970450295498,145) translate(67.62345679012346 78.71527777777777)"/><use xlink:href="#p" transform="matrix(1,0,0,1,543.4970450295498,145) translate(93.48765432098764 78.71527777777777)"/><path d="M538.5 346c0-3.3 2.68-6 6-6h148c3.3 0 6 2.7 6 6v148c0 3.3-2.7 6-6 6h-148c-3.32 0-6-2.7-6-6z" stroke="#5e5e5e" stroke-width="3" fill="#fff"/><use xlink:href="#q" transform="matrix(1,0,0,1,543.4970450295498,345) translate(14.537037037037038 78.71527777777777)"/><use xlink:href="#r" transform="matrix(1,0,0,1,543.4970450295498,345) translate(62.623456790123456 78.71527777777777)"/><path d="M538.5 606c0-3.3 2.68-6 6-6h148c3.3 0 6 2.7 6 6v148c0 3.3-2.7 6-6 6h-148c-3.32 0-6-2.7-6-6z" stroke="#5e5e5e" stroke-width="3" fill="#fff"/><use xlink:href="#s" transform="matrix(1,0,0,1,543.4970450295498,605) translate(9.598765432098759 78.71527777777777)"/><use xlink:href="#t" transform="matrix(1,0,0,1,543.4970450295498,605) translate(46.6358024691358 78.71527777777777)"/><use xlink:href="#o" transform="matrix(1,0,0,1,543.4970450295498,605) translate(86.14197530864197 78.71527777777777)"/><use xlink:href="#p" transform="matrix(1,0,0,1,543.4970450295498,605) translate(112.00617283950618 78.71527777777777)"/><path d="M538.5 766c0-3.3 2.68-6 6-6h148c3.3 0 6 2.7 6 6v148c0 3.3-2.7 6-6 6h-148c-3.32 0-6-2.7-6-6z" stroke="#5e5e5e" stroke-width="3" fill="#fff"/><use xlink:href="#s" transform="matrix(1,0,0,1,543.4970450295498,765) translate(35.5246913580247 64.65277777777777)"/><use xlink:href="#u" transform="matrix(1,0,0,1,543.4970450295498,765) translate(72.56172839506173 64.65277777777777)"/><use xlink:href="#r" transform="matrix(1,0,0,1,543.4970450295498,765) translate(38.58024691358025 91.31944444444446)"/><path d="M322.5 640.02l.96.06.96.1.95.14.94.18.96.23.94.26.96.3.96.36.97.4.98.47 1.02.53 1.04.6 1.07.68 1.1.77 1.16.9 1.2.98 1.26 1.13 1.33 1.3 1.4 1.5 1.5 1.75 1.6 2.03 1.75 2.4 1.9 2.87 2.1 3.46 2.33 4.27 2.64 5.33 3.05 6.85 3.6 9.14 4.48 12.9 6.06 20.23 13.43 53.65 17.73 72.1 6.07 20.23 4.47 12.9 3.6 9.15 3.05 6.85 2.64 5.33 2.34 4.26 2.1 3.45 1.9 2.87 1.73 2.4 1.6 2.03 1.5 1.74 1.42 1.5 1.33 1.3 1.25 1.12.34.28" stroke="#5e5e5e" stroke-width="2" fill="none"/><path d="M322.55 639.02l-.04 2-1-.02v-2z" fill="#5e5e5e"/><path d="M454 928.8l-14.98-.97 3.43-8.6z" stroke="#5e5e5e" stroke-width="2" fill="#5e5e5e"/><path d="M1358.5 456c0-3.3 2.68-6 6-6h168c3.3 0 6 2.7 6 6v148c0 3.3-2.7 6-6 6h-168c-3.32 0-6-2.7-6-6z" stroke="#5e5e5e" stroke-width="3" fill="#fff"/><use xlink:href="#a" transform="matrix(1,0,0,1,1363.4955224783016,455) translate(9.81481481481481 78.71527777777777)"/><use xlink:href="#v" transform="matrix(1,0,0,1,1363.4955224783016,455) translate(34.50617283950616 78.71527777777777)"/><path d="M1358.5 636c0-3.3 2.68-6 6-6h168c3.3 0 6 2.7 6 6v148c0 3.3-2.7 6-6 6h-168c-3.32 0-6-2.7-6-6z" stroke="#5e5e5e" stroke-width="3" fill="#fff"/><use xlink:href="#e" transform="matrix(1,0,0,1,1363.4955224783016,635) translate(20.89506172839505 78.71527777777777)"/><use xlink:href="#w" transform="matrix(1,0,0,1,1363.4955224783016,635) translate(45.5864197530864 78.71527777777777)"/><path d="M1358.5 816c0-3.3 2.68-6 6-6h168c3.3 0 6 2.7 6 6v148c0 3.3-2.7 6-6 6h-168c-3.32 0-6-2.7-6-6z" stroke="#5e5e5e" stroke-width="3" fill="#fff"/><use xlink:href="#x" transform="matrix(1,0,0,1,1363.4955224783016,815) translate(25.216049382716044 78.71527777777777)"/><use xlink:href="#y" transform="matrix(1,0,0,1,1363.4955224783016,815) translate(49.907407407407405 78.71527777777777)"/><path d="M80 346c0-3.3 2.7-6 6-6h308c3.3 0 6 2.7 6 6v428c0 3.3-2.7 6-6 6H86c-3.3 0-6-2.7-6-6z" stroke="#5e5e5e" stroke-width="3" fill-opacity="0"/><use xlink:href="#z" transform="matrix(1,0,0,1,88,348) translate(94.03703703703702 17.77777777777778)"/><path d="M1298.5 276c0-3.3 2.68-6 6-6h308c3.3 0 6 2.7 6 6v788c0 3.3-2.7 6-6 6h-308c-3.32 0-6-2.7-6-6z" stroke="#5e5e5e" stroke-width="3" fill-opacity="0"/><use xlink:href="#z" transform="matrix(1,0,0,1,1306.4955224783016,278) translate(94.03703703703702 17.77777777777778)"/><path d="M1800 36c0-3.3 2.68-6 6-6h148c3.3 0 6 2.7 6 6v148c0 3.3-2.7 6-6 6h-148c-3.32 0-6-2.7-6-6z" stroke="#5e5e5e" stroke-width="3" fill="#fff"/><use xlink:href="#a" transform="matrix(1,0,0,1,1804.9984774487648,35) translate(44.75308641975309 78.71527777777777)"/><use xlink:href="#A" transform="matrix(1,0,0,1,1804.9984774487648,35) translate(69.44444444444444 78.71527777777777)"/><path d="M1981.5 36c0-3.3 2.7-6 6-6h148c3.32 0 6 2.7 6 6v148c0 3.3-2.68 6-6 6h-148c-3.3 0-6-2.7-6-6z" stroke="#5e5e5e" stroke-width="3" fill="#fff"/><use xlink:href="#e" transform="matrix(1,0,0,1,1986.501432419228,35) translate(12.777777777777786 78.71527777777777)"/><use xlink:href="#B" transform="matrix(1,0,0,1,1986.501432419228,35) translate(37.46913580246914 78.71527777777777)"/><path d="M1800 216c0-3.3 2.68-6 6-6h148c3.3 0 6 2.7 6 6v148c0 3.3-2.7 6-6 6h-148c-3.32 0-6-2.7-6-6z" stroke="#5e5e5e" stroke-width="3" fill="#fff"/><use xlink:href="#x" transform="matrix(1,0,0,1,1804.998477448752,215) translate(23.827160493827165 78.71527777777777)"/><use xlink:href="#C" transform="matrix(1,0,0,1,1804.998477448752,215) translate(48.51851851851852 78.71527777777777)"/><use xlink:href="#D" transform="matrix(1,0,0,1,1804.998477448752,215) translate(100.30864197530865 78.71527777777777)"/><path d="M1981.5 216c0-3.3 2.7-6 6-6h148c3.32 0 6 2.7 6 6v148c0 3.3-2.68 6-6 6h-148c-3.3 0-6-2.7-6-6z" stroke="#5e5e5e" stroke-width="3" fill="#fff"/><use xlink:href="#E" transform="matrix(1,0,0,1,1986.501432419228,215) translate(3.425925925925924 78.71527777777777)"/><use xlink:href="#F" transform="matrix(1,0,0,1,1986.501432419228,215) translate(28.11728395061728 78.71527777777777)"/><use xlink:href="#G" transform="matrix(1,0,0,1,1986.501432419228,215) translate(87.31481481481481 78.71527777777777)"/><path d="M458.5 66c0-3.3 2.68-6 6-6h308c3.3 0 6 2.7 6 6v448c0 3.3-2.7 6-6 6h-308c-3.32 0-6-2.7-6-6z" stroke="#5e5e5e" stroke-width="3" fill-opacity="0"/><use xlink:href="#z" transform="matrix(1,0,0,1,466.4970450295368,68) translate(94.03703703703702 17.77777777777778)"/><path d="M458.5 566c0-3.3 2.68-6 6-6h308c3.3 0 6 2.7 6 6v728c0 3.3-2.7 6-6 6h-308c-3.32 0-6-2.7-6-6z" stroke="#5e5e5e" stroke-width="3" fill-opacity="0"/><use xlink:href="#z" transform="matrix(1,0,0,1,466.4970450295368,568) translate(94.03703703703702 17.77777777777778)"/><path d="M1758.5-24c0-3.3 2.68-6 6-6h408c3.3 0 6 2.7 6 6v408c0 3.3-2.7 6-6 6h-408c-3.32 0-6-2.7-6-6z" stroke="#5e5e5e" stroke-width="3" fill-opacity="0"/><use xlink:href="#z" transform="matrix(1,0,0,1,1766.4955224783016,-22) translate(144.037037037037 17.77777777777778)"/><path d="M1541 529.98l1.1-.02 2.03-.13 2-.2 1.98-.3 1.97-.38 1.94-.45 1.95-.55 1.94-.63 1.93-.72 1.97-.83 1.98-.93 2.02-1.06 2.06-1.2 2.12-1.33 2.17-1.5 2.25-1.72 2.33-1.93 2.44-2.2 2.55-2.5 2.7-2.88 2.88-3.33 3.08-3.9 3.32-4.58 3.63-5.47 4.02-6.65 4.52-8.23 5.2-10.5 6.2-14 7.98-20.22 12.7-36.82 37.8-116.48 7.96-20.22 6.22-14 5.2-10.5 4.52-8.23 4.02-6.65 3.63-5.47 3.3-4.58 3.1-3.9 2.86-3.32 2.7-2.88 2.56-2.5 2.44-2.2 2.33-1.93 2.24-1.7 2.17-1.52 2.13-1.34 2.06-1.18 2-1.06 2-.93 1.74-.74" stroke="#5e5e5e" stroke-width="2" fill="none"/><path d="M1541.05 530.98l-1.05.02v-2l1-.02z" fill="#5e5e5e"/><path d="M1753.82 180.6l-13.13 7.27-1.77-9.1z" stroke="#5e5e5e" stroke-width="2" fill="#5e5e5e"/><path d="M1800 516c0-3.3 2.68-6 6-6h148c3.3 0 6 2.7 6 6v148c0 3.3-2.7 6-6 6h-148c-3.32 0-6-2.7-6-6z" stroke="#5e5e5e" stroke-width="3" fill="#fff"/><use xlink:href="#a" transform="matrix(1,0,0,1,1804.9984774487648,515) translate(36.75925925925926 78.71527777777777)"/><use xlink:href="#H" transform="matrix(1,0,0,1,1804.9984774487648,515) translate(61.45061728395062 78.71527777777777)"/><path d="M1981.5 516c0-3.3 2.7-6 6-6h148c3.32 0 6 2.7 6 6v148c0 3.3-2.68 6-6 6h-148c-3.3 0-6-2.7-6-6z" stroke="#5e5e5e" stroke-width="3" fill="#fff"/><use xlink:href="#e" transform="matrix(1,0,0,1,1986.501432419228,515) translate(9.691358024691368 78.71527777777777)"/><use xlink:href="#I" transform="matrix(1,0,0,1,1986.501432419228,515) translate(34.38271604938272 78.71527777777777)"/><use xlink:href="#J" transform="matrix(1,0,0,1,1986.501432419228,515) translate(86.17283950617285 78.71527777777777)"/><path d="M1800 696c0-3.3 2.68-6 6-6h148c3.3 0 6 2.7 6 6v148c0 3.3-2.7 6-6 6h-148c-3.32 0-6-2.7-6-6z" stroke="#5e5e5e" stroke-width="3" fill="#fff"/><use xlink:href="#x" transform="matrix(1,0,0,1,1804.998477448752,695) translate(23.827160493827165 78.71527777777777)"/><use xlink:href="#I" transform="matrix(1,0,0,1,1804.998477448752,695) translate(48.51851851851852 78.71527777777777)"/><use xlink:href="#D" transform="matrix(1,0,0,1,1804.998477448752,695) translate(100.30864197530865 78.71527777777777)"/><path d="M1981.5 696c0-3.3 2.7-6 6-6h148c3.32 0 6 2.7 6 6v148c0 3.3-2.68 6-6 6h-148c-3.3 0-6-2.7-6-6z" stroke="#5e5e5e" stroke-width="3" fill="#fff"/><use xlink:href="#E" transform="matrix(1,0,0,1,1986.501432419228,695) translate(38.611111111111114 78.71527777777777)"/><use xlink:href="#K" transform="matrix(1,0,0,1,1986.501432419228,695) translate(63.30246913580247 78.71527777777777)"/><path d="M1758.5 456c0-3.3 2.68-6 6-6h408c3.3 0 6 2.7 6 6v408c0 3.3-2.7 6-6 6h-408c-3.32 0-6-2.7-6-6z" stroke="#5e5e5e" stroke-width="3" fill-opacity="0"/><use xlink:href="#z" transform="matrix(1,0,0,1,1766.4955224783016,458) translate(144.037037037037 17.77777777777778)"/><path d="M1541 709.98l12.58-.26 11.63-.72 10.2-1.07 9.18-1.35 8.43-1.6 8-1.88 7.77-2.17 7.96-2.6 8.8-3.27 12.23-5.17 33.7-14.96 8.8-3.28 7.96-2.6 7.78-2.16 7.98-1.87 8.43-1.6 9.18-1.36 10.2-1.07 6.73-.42" stroke="#5e5e5e" stroke-width="2" fill="none"/><path d="M1541.04 710.98l-1.04.02v-2l1-.02z" fill="#5e5e5e"/><path d="M1753.76 660.1l-14.1 5.08-.3-9.26z" stroke="#5e5e5e" stroke-width="2" fill="#5e5e5e"/><path d="M1800 1016c0-3.3 2.68-6 6-6h148c3.3 0 6 2.7 6 6v148c0 3.3-2.7 6-6 6h-148c-3.32 0-6-2.7-6-6z" stroke="#5e5e5e" stroke-width="3" fill="#fff"/><use xlink:href="#a" transform="matrix(1,0,0,1,1804.9984774487648,1015) translate(23.827160493827158 64.65277777777777)"/><use xlink:href="#L" transform="matrix(1,0,0,1,1804.9984774487648,1015) translate(48.51851851851852 64.65277777777777)"/><use xlink:href="#y" transform="matrix(1,0,0,1,1804.9984774487648,1015) translate(27.56172839506172 91.31944444444446)"/><path d="M1981.5 1016c0-3.3 2.7-6 6-6h148c3.32 0 6 2.7 6 6v148c0 3.3-2.68 6-6 6h-148c-3.3 0-6-2.7-6-6z" stroke="#5e5e5e" stroke-width="3" fill="#fff"/><use xlink:href="#e" transform="matrix(1,0,0,1,1986.501432419228,1015) translate(15.21604938271605 64.65277777777777)"/><use xlink:href="#M" transform="matrix(1,0,0,1,1986.501432419228,1015) translate(39.907407407407405 64.65277777777777)"/><use xlink:href="#N" transform="matrix(1,0,0,1,1986.501432419228,1015) translate(36.141975308641975 91.31944444444446)"/><path d="M1800 1196c0-3.3 2.68-6 6-6h148c3.3 0 6 2.7 6 6v148c0 3.3-2.7 6-6 6h-148c-3.32 0-6-2.7-6-6z" stroke="#5e5e5e" stroke-width="3" fill="#fff"/><use xlink:href="#x" transform="matrix(1,0,0,1,1804.998477448752,1195) translate(23.796296296296298 78.71527777777777)"/><use xlink:href="#N" transform="matrix(1,0,0,1,1804.998477448752,1195) translate(48.48765432098766 78.71527777777777)"/><path d="M1981.5 1196c0-3.3 2.7-6 6-6h148c3.32 0 6 2.7 6 6v148c0 3.3-2.68 6-6 6h-148c-3.3 0-6-2.7-6-6z" stroke="#5e5e5e" stroke-width="3" fill="#fff"/><use xlink:href="#E" transform="matrix(1,0,0,1,1986.501432419228,1195) translate(14.567901234567906 78.71527777777777)"/><use xlink:href="#O" transform="matrix(1,0,0,1,1986.501432419228,1195) translate(39.25925925925927 78.71527777777777)"/><path d="M1758.5 956c0-3.3 2.68-6 6-6h408c3.3 0 6 2.7 6 6v408c0 3.3-2.7 6-6 6h-408c-3.32 0-6-2.7-6-6z" stroke="#5e5e5e" stroke-width="3" fill-opacity="0"/><use xlink:href="#z" transform="matrix(1,0,0,1,1766.4955224783016,958) translate(144.037037037037 17.77777777777778)"/><path d="M1541 890.02l6.22.13 6.65.42 6.16.64 5.75.86 5.4 1.03 5.1 1.18 4.82 1.35 4.62 1.5 4.43 1.65 4.27 1.8 4.14 1.94 4.03 2.1 3.94 2.3 3.88 2.45 3.84 2.67 3.8 2.9 3.8 3.14 3.84 3.45 3.86 3.78 3.94 4.2 4.04 4.7 4.18 5.27 4.4 6.04 4.66 7.06 5.1 8.42 5.75 10.5 6.96 14.04 10.1 22.88 38.6 92.6 9.15 18.46 8.06 14.68 7.52 12.4 5.62 8.48" stroke="#5e5e5e" stroke-width="2" fill="none"/><path d="M1541.05 889.02l-.05 2-1-.02v-2z" fill="#5e5e5e"/><path d="M1756.6 1167.38l-12.13-8.83 7.5-5.44z" stroke="#5e5e5e" stroke-width="2" fill="#5e5e5e"/><path d="M322.5 459.98h.67l1.62-.12 1.57-.16 1.55-.23 1.53-.3 1.5-.35 1.5-.4 1.47-.5 1.5-.54 1.47-.63 1.5-.7 1.5-.8 1.54-.88 1.56-1 1.6-1.1 1.66-1.27 1.72-1.42 1.78-1.6 1.87-1.84 1.97-2.1 2.1-2.43 2.25-2.84 2.45-3.37 2.7-4.1 3.07-5.06 3.58-6.53 4.47-9.02 6.67-15.07 23.38-56.28 4.46-9.03 3.58-6.54 3.07-5.06 2.7-4.1 2.45-3.36 2.25-2.85 2.1-2.44 1.97-2.1 1.87-1.84 1.78-1.6 1.7-1.42 1.67-1.26 1.6-1.1 1.56-1 1.54-.9.62-.32" stroke="#5e5e5e" stroke-width="2" fill="none"/><path d="M322.55 460.98l-1.05.02v-2l1-.02z" fill="#5e5e5e"/><path d="M453.86 290.78l-12.73 7.94-2.24-9z" stroke="#5e5e5e" stroke-width="2" fill="#5e5e5e"/><path d="M538.5 966c0-3.3 2.68-6 6-6h148c3.3 0 6 2.7 6 6v148c0 3.3-2.7 6-6 6h-148c-3.32 0-6-2.7-6-6z" stroke="#5e5e5e" stroke-width="3" fill="#fff"/><use xlink:href="#P" transform="matrix(1,0,0,1,543.4970450295368,965) translate(9.598765432098759 78.71527777777777)"/><use xlink:href="#t" transform="matrix(1,0,0,1,543.4970450295368,965) translate(46.6358024691358 78.71527777777777)"/><use xlink:href="#o" transform="matrix(1,0,0,1,543.4970450295368,965) translate(86.14197530864197 78.71527777777777)"/><use xlink:href="#p" transform="matrix(1,0,0,1,543.4970450295368,965) translate(112.00617283950618 78.71527777777777)"/><path d="M538.5 1126c0-3.3 2.68-6 6-6h148c3.3 0 6 2.7 6 6v148c0 3.3-2.7 6-6 6h-148c-3.32 0-6-2.7-6-6z" stroke="#5e5e5e" stroke-width="3" fill="#fff"/><use xlink:href="#P" transform="matrix(1,0,0,1,543.4970450295368,1125) translate(35.5246913580247 64.65277777777777)"/><use xlink:href="#u" transform="matrix(1,0,0,1,543.4970450295368,1125) translate(72.56172839506173 64.65277777777777)"/><use xlink:href="#r" transform="matrix(1,0,0,1,543.4970450295368,1125) translate(38.58024691358025 91.31944444444446)"/><path d="M2458.5 516c0-3.3 2.68-6 6-6h148c3.3 0 6 2.7 6 6v148c0 3.3-2.7 6-6 6h-148c-3.32 0-6-2.7-6-6z" stroke="#5e5e5e" stroke-width="3" fill="#fff"/><use xlink:href="#a" transform="matrix(1,0,0,1,2463.4955224783016,515) translate(28.117283950617285 64.65277777777777)"/><use xlink:href="#Q" transform="matrix(1,0,0,1,2463.4955224783016,515) translate(52.808641975308646 64.65277777777777)"/><use xlink:href="#R" transform="matrix(1,0,0,1,2463.4955224783016,515) translate(31.234567901234563 91.31944444444446)"/><path d="M2458.5 696c0-3.3 2.68-6 6-6h148c3.3 0 6 2.7 6 6v148c0 3.3-2.7 6-6 6h-148c-3.32 0-6-2.7-6-6z" stroke="#5e5e5e" stroke-width="3" fill="#fff"/><use xlink:href="#e" transform="matrix(1,0,0,1,2463.4955224783016,695) translate(12.685185185185183 64.65277777777777)"/><use xlink:href="#S" transform="matrix(1,0,0,1,2463.4955224783016,695) translate(37.376543209876544 64.65277777777777)"/><use xlink:href="#Q" transform="matrix(1,0,0,1,2463.4955224783016,695) translate(68.24074074074073 64.65277777777777)"/><use xlink:href="#R" transform="matrix(1,0,0,1,2463.4955224783016,695) translate(31.234567901234563 91.31944444444446)"/><path d="M2378.5 456c0-3.3 2.68-6 6-6h308c3.3 0 6 2.7 6 6v408c0 3.3-2.7 6-6 6h-308c-3.32 0-6-2.7-6-6z" stroke="#5e5e5e" stroke-width="3" fill-opacity="0"/><use xlink:href="#z" transform="matrix(1,0,0,1,2386.4955224783016,458) translate(94.03703703703702 17.77777777777778)"/><path d="M2181 180.02h.26l1.24.08 1.23.13 1.23.18 1.22.25 1.22.28 1.22.35 1.24.4 1.25.47 1.28.53 1.3.6 1.33.7 1.37.8 1.4.9 1.47 1 1.5 1.15 1.6 1.32 1.67 1.5 1.77 1.73 1.87 2 2 2.3 2.15 2.73 2.33 3.22 2.54 3.84 2.8 4.65 3.14 5.72 3.55 7.14 4.06 9.14 4.78 12.08 5.78 16.67 7.4 24.68 10.86 42.7 49.8 224.24 7.4 24.68 5.8 16.67 4.76 12.08 4.06 9.14 3.54 7.14 3.13 5.7 2.82 4.66 2.55 3.84 2.33 3.2 2.15 2.73 2 2.33 1.87 2 1.76 1.72 1.67 1.5 1.6 1.32 1.5 1.15 1.46 1 .38.25" stroke="#5e5e5e" stroke-width="2" fill="none"/><path d="M2181.04 179.02l-.04 2-1-.02v-2z" fill="#5e5e5e"/><path d="M2373.9 659.04l-15 .17 2.77-8.84z" stroke="#5e5e5e" stroke-width="2" fill="#5e5e5e"/><path d="M2181 660h177.5" stroke="#5e5e5e" stroke-width="2" fill="none"/><path d="M2181.02 661H2180v-2h1.02z" fill="#5e5e5e"/><path d="M2373.76 660l-14.27 4.64v-9.28z" stroke="#5e5e5e" stroke-width="2" fill="#5e5e5e"/><path d="M2181 1159.98h.2l1.2-.08 1.2-.13 1.16-.17 1.18-.22 1.17-.28 1.2-.33 1.2-.4 1.2-.44 1.23-.5 1.25-.6 1.28-.68 1.32-.76 1.37-.87 1.4-1 1.48-1.1 1.54-1.28 1.62-1.46 1.7-1.68 1.82-1.94 1.94-2.26 2.1-2.64 2.27-3.13 2.48-3.75 2.75-4.53 3.05-5.56 3.45-6.95 3.96-8.92 4.65-11.75 5.6-16.14 7.1-23.67 10.05-39.5 54.84-254.04 7.1-23.67 5.6-16.14 4.64-11.75 3.96-8.92 3.45-6.96 3.04-5.57 2.74-4.53 2.48-3.75 2.27-3.13 2.1-2.64 1.94-2.26 1.82-1.94 1.7-1.67 1.62-1.45 1.54-1.28 1.47-1.1 1.23-.86" stroke="#5e5e5e" stroke-width="2" fill="none"/><path d="M2181.04 1160.98l-1.04.02v-2l1-.02z" fill="#5e5e5e"/><path d="M2373.92 661l-12.15 8.8-2.85-8.83z" stroke="#5e5e5e" stroke-width="2" fill="#5e5e5e"/><path d="M2848.5 516c0-3.3 2.68-6 6-6h148c3.3 0 6 2.7 6 6v148c0 3.3-2.7 6-6 6h-148c-3.32 0-6-2.7-6-6z" stroke="#5e5e5e" stroke-width="3" fill="#fff"/><use xlink:href="#a" transform="matrix(1,0,0,1,2853.4955224783016,515) translate(11.512345679012348 64.65277777777777)"/><use xlink:href="#T" transform="matrix(1,0,0,1,2853.4955224783016,515) translate(36.20370370370371 64.65277777777777)"/><use xlink:href="#U" transform="matrix(1,0,0,1,2853.4955224783016,515) translate(39.25925925925926 91.31944444444446)"/><path d="M3048.5 516c0-3.3 2.68-6 6-6h148c3.3 0 6 2.7 6 6v148c0 3.3-2.7 6-6 6h-148c-3.32 0-6-2.7-6-6z" stroke="#5e5e5e" stroke-width="3" fill="#fff"/><use xlink:href="#e" transform="matrix(1,0,0,1,3053.4955224783016,515) translate(18.888888888888886 64.65277777777777)"/><use xlink:href="#V" transform="matrix(1,0,0,1,3053.4955224783016,515) translate(43.58024691358024 64.65277777777777)"/><use xlink:href="#W" transform="matrix(1,0,0,1,3053.4955224783016,515) translate(19.5679012345679 91.31944444444446)"/><use xlink:href="#X" transform="matrix(1,0,0,1,3053.4955224783016,515) translate(70.06172839506172 91.31944444444446)"/><path d="M2808.5 476c0-3.3 2.68-6 6-6h448c3.3 0 6 2.7 6 6v228c0 3.3-2.7 6-6 6h-448c-3.32 0-6-2.7-6-6z" stroke="#5e5e5e" stroke-width="3" fill-opacity="0"/><use xlink:href="#z" transform="matrix(1,0,0,1,2816.4955224783016,478) translate(164.037037037037 17.77777777777778)"/><path d="M2621 590h167.5" stroke="#5e5e5e" stroke-width="2" fill="none"/><path d="M2621.02 591H2620v-2h1.02z" fill="#5e5e5e"/><path d="M2803.76 590l-14.27 4.64v-9.28z" stroke="#5e5e5e" stroke-width="2" fill="#5e5e5e"/><path d="M3498.5 476c0-3.3 2.68-6 6-6h148c3.3 0 6 2.7 6 6v148c0 3.3-2.7 6-6 6h-148c-3.32 0-6-2.7-6-6z" stroke="#5e5e5e" stroke-width="3" fill="#fff"/><use xlink:href="#a" transform="matrix(1,0,0,1,3503.4955224783016,475) translate(12.129629629629626 64.65277777777777)"/><use xlink:href="#Y" transform="matrix(1,0,0,1,3503.4955224783016,475) translate(36.82098765432099 64.65277777777777)"/><use xlink:href="#Z" transform="matrix(1,0,0,1,3503.4955224783016,475) translate(41.69753086419753 91.31944444444446)"/><path d="M3498.5 656c0-3.3 2.68-6 6-6h148c3.3 0 6 2.7 6 6v148c0 3.3-2.7 6-6 6h-148c-3.32 0-6-2.7-6-6z" stroke="#5e5e5e" stroke-width="3" fill="#fff"/><use xlink:href="#e" transform="matrix(1,0,0,1,3503.4955224783016,654.9999999999999) translate(41.08024691358025 64.65277777777777)"/><use xlink:href="#aa" transform="matrix(1,0,0,1,3503.4955224783016,654.9999999999999) translate(65.77160493827161 64.65277777777777)"/><use xlink:href="#R" transform="matrix(1,0,0,1,3503.4955224783016,654.9999999999999) translate(31.234567901234563 91.31944444444446)"/><path d="M3418.5 436c0-3.3 2.68-6 6-6h308c3.3 0 6 2.7 6 6v408c0 3.3-2.7 6-6 6h-308c-3.32 0-6-2.7-6-6z" stroke="#5e5e5e" stroke-width="3" fill-opacity="0"/><use xlink:href="#z" transform="matrix(1,0,0,1,3426.4955224783016,438) translate(94.03703703703702 17.77777777777778)"/><path d="M2621 770.02l37.2.8 50.77 3.27 79.93 8.56 299.9 39.74 45.02 2.9 33.03.7 26.02-.5 21.34-1.34 18-1.88 15.44-2.28 13.48-2.56 11.93-2.8 10.64-2.96 9.6-3.12 8.7-3.24 7.98-3.35 7.34-3.45 6.8-3.55 6.3-3.64 5.92-3.75 5.54-3.85 5.2-3.96 4.94-4.07 4.68-4.2 4.44-4.36 4.23-4.5 4.04-4.7 3.88-4.87 3.7-5.1 3.55-5.33 3.4-5.6 3.25-5.94 3.1-6.27 2.98-6.67 2.82-7.13 2.66-7.65 2.5-8.24 2.3-8.94 2.05-9.75 1.8-10.7.95-7.5" stroke="#5e5e5e" stroke-width="2" fill="none"/><path d="M2621.05 769.02l-.04 2-1-.02v-2z" fill="#5e5e5e"/><path d="M3409.75 643.06l3.3 14.63-9.23-.86z" stroke="#5e5e5e" stroke-width="2" fill="#5e5e5e"/><path d="M3271 590.02l5.4.1 5.74.37 5.22.54 4.8.7 4.47.86 4.22 1 4.04 1.1 3.9 1.3 3.87 1.42 3.88 1.64 4.02 1.9 4.34 2.26 5.06 2.92 7.53 4.8 19.53 12.92 5.06 2.92 4.32 2.27 4.02 1.9 3.88 1.63 3.87 1.43 3.9 1.3 4.04 1.1 4.22 1 4.47.85 3.72.55" stroke="#5e5e5e" stroke-width="2" fill="none"/><path d="M3271.04 589.02l-.04 2-1-.02v-2z" fill="#5e5e5e"/><path d="M3413.77 639.8l-14.54 3.7.6-9.26z" stroke="#5e5e5e" stroke-width="2" fill="#5e5e5e"/><path d="M980 506c0-3.3 2.7-6 6-6h148c3.3 0 6 2.7 6 6v148c0 3.3-2.7 6-6 6H986c-3.3 0-6-2.7-6-6z" stroke="#5e5e5e" stroke-width="3" fill="#fff"/><use xlink:href="#a" transform="matrix(1,0,0,1,985,505) translate(41.04938271604939 50.59027777777778)"/><use xlink:href="#ab" transform="matrix(1,0,0,1,985,505) translate(65.74074074074075 50.59027777777778)"/><use xlink:href="#ac" transform="matrix(1,0,0,1,985,505) translate(33.08641975308642 77.25694444444446)"/><use xlink:href="#ad" transform="matrix(1,0,0,1,985,505) translate(35.58641975308642 103.92361111111111)"/><path d="M980 716c0-3.3 2.7-6 6-6h148c3.3 0 6 2.7 6 6v148c0 3.3-2.7 6-6 6H986c-3.3 0-6-2.7-6-6z" stroke="#5e5e5e" stroke-width="3" fill="#fff"/><g><use xlink:href="#e" transform="matrix(1,0,0,1,985,715) translate(2.7777777777777715 78.71527777777777)"/><use xlink:href="#ae" transform="matrix(1,0,0,1,985,715) translate(27.46913580246913 78.71527777777777)"/><use xlink:href="#af" transform="matrix(1,0,0,1,985,715) translate(75.61728395061728 78.71527777777777)"/><use xlink:href="#ag" transform="matrix(1,0,0,1,985,715) translate(105.24691358024691 78.71527777777777)"/></g><path d="M900 456c0-3.3 2.7-6 6-6h308c3.3 0 6 2.7 6 6v428c0 3.3-2.7 6-6 6H906c-3.3 0-6-2.7-6-6z" stroke="#5e5e5e" stroke-width="3" fill-opacity="0"/><g><use xlink:href="#z" transform="matrix(1,0,0,1,908,458) translate(94.03703703703702 17.77777777777778)"/></g><path d="M1142.5 789.98l2.1-.04 2.92-.2 2.8-.28 2.72-.4 2.62-.5 2.55-.6 2.5-.7 2.44-.8 2.4-.9 2.4-1 2.4-1.1 2.38-1.26 2.4-1.4 2.45-1.55 2.5-1.74 2.58-1.94 2.68-2.22 2.8-2.54 3.02-2.94 3.27-3.5 3.67-4.25 4.33-5.48 5.77-7.97 27.86-41.27 4.34-5.5 3.67-4.25 3.28-3.5 3-2.93 2.82-2.54 2.68-2.22 2.57-1.95 2.5-1.75 2.45-1.55 2.4-1.4 2.4-1.25 2.38-1.12 2.4-1 2.4-.9 2.45-.8.92-.25" stroke="#5e5e5e" stroke-width="2" fill="none"/><path d="M1142.55 790.98l-1.05.02v-2l1-.02z" fill="#5e5e5e"/><path d="M1293.8 670.43l-13.52 6.5-1.25-9.17z" stroke="#5e5e5e" stroke-width="2" fill="#5e5e5e"/><path d="M781 290.04h.15l.57.07.56.1.57.1.57.13.58.16.58.18.6.22.6.26.6.3.64.32.66.38.68.43.7.48.74.56.77.64.82.74.86.85.92.98 1 1.15 1.07 1.36 1.16 1.6 1.3 1.94 1.4 2.34 1.6 2.9 1.8 3.6 2.05 4.65 2.4 6.08 2.88 8.3 3.54 11.8 4.62 18.1 6.72 32.04 35.8 206.4 4.6 18.1 3.55 11.8 2.87 8.3 2.4 6.1 2.07 4.63 1.8 3.62 1.6 2.9 1.4 2.33 1.28 1.93 1.17 1.6.07.1" stroke="#5e5e5e" stroke-width="2" fill="none"/><path d="M781.05 289.02l-.05 2-1-.02v-2z" fill="#5e5e5e"/><path d="M895.75 668.3l-14.58-3.55 4.87-7.9z" stroke="#5e5e5e" stroke-width="2" fill="#5e5e5e"/><path d="M781 929.97l.67-.04.82-.1.8-.1.8-.16.8-.2.82-.22.82-.26.82-.32.84-.35.85-.4.87-.45.9-.52.9-.58.96-.66 1-.75 1.02-.86 1.08-.96 1.14-1.12 1.2-1.3 1.3-1.48 1.38-1.75 1.5-2.08 1.64-2.47 1.8-2.98 2-3.66 2.3-4.58 2.6-5.9 3.1-7.84 3.8-11 5.1-17 9.3-36.75 19.9-83.02 5.1-17 3.82-10.98 3.1-7.84 2.6-5.9 2.28-4.6 2-3.65 1.82-2.98 1.63-2.47 1.5-2.07 1.38-1.74 1.3-1.5 1.2-1.28.55-.55" stroke="#5e5e5e" stroke-width="2" fill="none"/><path d="M781.05 930.98L780 931v-2l1-.02z" fill="#5e5e5e"/><path d="M895.56 671.35l-11.02 10.18-3.88-8.42z" stroke="#5e5e5e" stroke-width="2" fill="#5e5e5e"/><path d="M3498.5-54c0-3.3 2.68-6 6-6H3694c3.3 0 6 2.7 6 6V94c0 3.3-2.7 6-6 6h-189.5c-3.32 0-6-2.7-6-6z" stroke="#5e5e5e" stroke-width="3" fill="#fff"/><g><use xlink:href="#a" transform="matrix(1,0,0,1,3503.4955224783016,-55) translate(8.37654320987653 78.71527777777777)"/><use xlink:href="#ah" transform="matrix(1,0,0,1,3503.4955224783016,-55) translate(33.067901234567884 78.71527777777777)"/></g><path d="M3498.5 126c0-3.3 2.68-6 6-6H3674c3.3 0 6 2.7 6 6v148c0 3.3-2.7 6-6 6h-169.5c-3.32 0-6-2.7-6-6z" stroke="#5e5e5e" stroke-width="3" fill="#fff"/><g><use xlink:href="#e" transform="matrix(1,0,0,1,3503.4955224783016,125) translate(7.049382716049394 64.65277777777777)"/><use xlink:href="#ai" transform="matrix(1,0,0,1,3503.4955224783016,125) translate(31.74074074074075 64.65277777777777)"/><use xlink:href="#aj" transform="matrix(1,0,0,1,3503.4955224783016,125) translate(98.28395061728395 64.65277777777777)"/><use xlink:href="#Z" transform="matrix(1,0,0,1,3503.4955224783016,125) translate(52.69753086419753 91.31944444444446)"/></g><path d="M3460-114c0-3.3 2.7-6 6-6h288c3.3 0 6 2.7 6 6v408c0 3.3-2.7 6-6 6h-288c-3.3 0-6-2.7-6-6z" stroke="#5e5e5e" stroke-width="3" fill-opacity="0"/><g><use xlink:href="#z" transform="matrix(1,0,0,1,3468,-112) translate(84.03703703703702 17.77777777777778)"/></g><path d="M3496 549.98l-3.62-.08-4.5-.28-4.45-.47-4.37-.64-4.32-.82-4.3-1-4.25-1.2-4.25-1.37-4.24-1.57-4.23-1.78-4.26-2-4.28-2.25-4.32-2.5-4.36-2.77-4.42-3.07-4.5-3.4-4.54-3.77-4.63-4.2-4.72-4.6-4.8-5.13-4.9-5.67-5-6.3-5.07-7-5.15-7.75-5.2-8.6-5.24-9.56-5.24-10.57-5.2-11.65-5.05-12.8-4.85-13.96-4.56-15.1-4.14-16.14-3.62-17.04-3-17.7-2.27-18.07-1.52-18.1-.74-17.84V276l.7-16.4 1.28-15.42 1.8-14.3 2.22-13.16 2.56-12.04 2.8-10.96 3-9.95 3.15-9.02 3.23-8.17 3.3-7.4 3.33-6.73 3.36-6.1 3.35-5.55 3.36-5.06 3.36-4.62 3.35-4.22 3.34-3.86 3.33-3.55 3.32-3.27 3.32-3 3.32-2.74 3.33-2.54 3.35-2.32 3.37-2.14 3.38-1.96 3.43-1.8 3.48-1.63 3.53-1.47 3.6-1.33 3.65-1.2 3.74-1.03 3.83-.9 2.77-.53" stroke="#5e5e5e" stroke-width="2" fill="none"/><path d="M3497 549v2l-1.06-.02.05-2z" fill="#5e5e5e"/><path d="M3455.28 90.3l-13.8 5.87-.82-9.23z" stroke="#5e5e5e" stroke-width="2" fill="#5e5e5e"/><path d="M980 86c0-3.3 2.7-6 6-6h148c3.3 0 6 2.7 6 6v148c0 3.3-2.7 6-6 6H986c-3.3 0-6-2.7-6-6z" stroke="#5e5e5e" stroke-width="3" fill="#ffdba9"/><g><use xlink:href="#ak" transform="matrix(1,0,0,1,985,85) translate(13.364197530864196 78.71527777777777)"/><use xlink:href="#al" transform="matrix(1,0,0,1,985,85) translate(71.32716049382717 78.71527777777777)"/></g><path d="M1142.5 579.98l1.32-.03 2.23-.14 2.15-.2 2.08-.32 2.02-.4 1.96-.44 1.9-.54 1.87-.6 1.83-.68 1.8-.76 1.76-.83 1.74-.9 1.72-1 1.7-1.08 1.68-1.17 1.67-1.27 1.66-1.37 1.65-1.5 1.64-1.6 1.63-1.74 1.64-1.9 1.62-2.06 1.6-2.23 1.62-2.4 1.6-2.63 1.55-2.86 1.54-3.1 1.52-3.36 1.45-3.67 1.38-3.97 1.3-4.3 1.2-4.65 1.05-5 .9-5.34.72-5.67.5-5.98.26-6.25v-6.47l-.28-6.6-.56-6.68-.84-6.67-1.12-6.58-1.36-6.43-1.6-6.2-1.8-5.95-1.95-5.64-2.1-5.34-2.24-5-2.32-4.68-2.4-4.36-1.23-2.1-2.6-4.07-2.88-4.15-3.25-4.27-3.67-4.43-4.23-4.68-4.95-5.06-6.02-5.64-7.8-6.7-12.2-9.65-37.28-28.14-6.35-5.45-4.66-4.37-3.7-3.77-3.04-3.36-2.57-3.1-2.2-2.9-1.92-2.73-1.67-2.63-1.46-2.54-1.3-2.5-1.15-2.43-1.02-2.4-.9-2.4-.7-2.16" stroke="#5e5e5e" stroke-width="2" fill="none"/><path d="M1142.55 580.98l-1.05.02v-2l1-.02z" fill="#5e5e5e"/><path d="M1060.47 284.7l6.66 13.44-9.17 1.35z" stroke="#5e5e5e" stroke-width="2" fill="#5e5e5e"/><path d="M4440 326c0-3.3 2.7-6 6-6h148c3.3 0 6 2.7 6 6v148c0 3.3-2.7 6-6 6h-148c-3.3 0-6-2.7-6-6z" stroke="#5e5e5e" stroke-width="3" fill="#ffdba9"/><g><use xlink:href="#ak" transform="matrix(1,0,0,1,4445,325) translate(13.364197530864196 78.71527777777777)"/><use xlink:href="#al" transform="matrix(1,0,0,1,4445,325) translate(71.32716049382717 78.71527777777777)"/></g><path d="M3950 26c0-3.3 2.7-6 6-6h148c3.3 0 6 2.7 6 6v148c0 3.3-2.7 6-6 6h-148c-3.3 0-6-2.7-6-6z" stroke="#5e5e5e" stroke-width="3" fill="#fff"/><g><use xlink:href="#am" transform="matrix(1,0,0,1,3955,25) translate(9.012345679012341 50.59027777777778)"/><use xlink:href="#an" transform="matrix(1,0,0,1,3955,25) translate(73.14814814814815 50.59027777777778)"/><use xlink:href="#ao" transform="matrix(1,0,0,1,3955,25) translate(122.46913580246914 50.59027777777778)"/><use xlink:href="#ap" transform="matrix(1,0,0,1,3955,25) translate(13.302469135802468 77.25694444444446)"/><use xlink:href="#h" transform="matrix(1,0,0,1,3955,25) translate(56.51234567901235 77.25694444444446)"/><use xlink:href="#aq" transform="matrix(1,0,0,1,3955,25) translate(88.54938271604938 77.25694444444446)"/><use xlink:href="#ar" transform="matrix(1,0,0,1,3955,25) translate(43.58024691358025 103.92361111111111)"/></g><path d="M3940 566c0-3.3 2.7-6 6-6h148c3.3 0 6 2.7 6 6v148c0 3.3-2.7 6-6 6h-148c-3.3 0-6-2.7-6-6z" stroke="#5e5e5e" stroke-width="3" fill="#fff"/><g><use xlink:href="#am" transform="matrix(1,0,0,1,3945,564.9999999999999) translate(0.401234567901227 64.65277777777777)"/><use xlink:href="#as" transform="matrix(1,0,0,1,3945,564.9999999999999) translate(64.53703703703704 64.65277777777777)"/><use xlink:href="#c" transform="matrix(1,0,0,1,3945,564.9999999999999) translate(123.73456790123457 64.65277777777777)"/><use xlink:href="#at" transform="matrix(1,0,0,1,3945,564.9999999999999) translate(16.419753086419753 91.31944444444446)"/><use xlink:href="#ar" transform="matrix(1,0,0,1,3945,564.9999999999999) translate(70.74074074074073 91.31944444444446)"/></g><path d="M3870-24c0-3.3 2.7-6 6-6h308c3.3 0 6 2.7 6 6v228c0 3.3-2.7 6-6 6h-308c-3.3 0-6-2.7-6-6z" stroke="#5e5e5e" stroke-width="3" fill-opacity="0"/><g><use xlink:href="#z" transform="matrix(1,0,0,1,3878,-22) translate(94.03703703703702 17.77777777777778)"/></g><path d="M3860 526c0-3.3 2.7-6 6-6h308c3.3 0 6 2.7 6 6v228c0 3.3-2.7 6-6 6h-308c-3.3 0-6-2.7-6-6z" stroke="#5e5e5e" stroke-width="3" fill-opacity="0"/><g><use xlink:href="#z" transform="matrix(1,0,0,1,3868,528) translate(94.03703703703702 17.77777777777778)"/></g><path d="M3762.5 90h87.5" stroke="#5e5e5e" stroke-width="2" fill="none"/><path d="M3762.53 91h-1.03v-2h1.03z" fill="#5e5e5e"/><path d="M3865.26 90L3851 94.64v-9.28z" stroke="#5e5e5e" stroke-width="2" fill="#5e5e5e"/><path d="M4192.5 90.02h.4l1.4.1 1.36.14 1.35.2 1.35.25 1.33.33 1.34.37 1.33.43 1.35.5 1.36.58 1.38.66 1.4.74 1.45.83 1.47.94 1.52 1.06 1.57 1.2 1.65 1.36 1.72 1.54 1.8 1.77 1.92 2.05 2.04 2.36 2.18 2.77 2.36 3.25 2.58 3.88 2.83 4.7 3.18 5.77 3.6 7.3 4.22 9.47 5.12 12.98 6.74 19.48 12.04 40.4 26.35 92.6 6.73 19.48 5.12 12.98 4.22 9.48 3.6 7.3 3.18 5.77 2.83 4.7 2.58 3.88 2.36 3.25 2.18 2.76 2.04 2.35 1.9 2.04 1.82 1.76 1.72 1.55 1.65 1.37 1.58 1.2 1.53 1.06 1.48.94.23.13" stroke="#5e5e5e" stroke-width="2" fill="none"/><path d="M4192.55 89.02l-.04 2-1-.02v-2z" fill="#5e5e5e"/><path d="M4355.4 396.1l-15 .57 2.54-8.92z" stroke="#5e5e5e" stroke-width="2" fill="#5e5e5e"/><path d="M4182.5 639.98l1.02-.02 1.97-.13 1.9-.2 1.9-.28 1.86-.35 1.84-.43 1.83-.5 1.82-.6 1.82-.68 1.83-.78 1.85-.87 1.87-.98 1.9-1.1 1.95-1.23 2-1.4 2.04-1.55 2.15-1.78 2.2-2 2.34-2.27 2.44-2.62 2.6-3.03 2.8-3.53 3.05-4.18 3.32-5.03 3.73-6.17 4.28-7.8 5.12-10.36 6.72-15.13 13.04-33.4 21.63-56.6 6.72-15.14 5.12-10.36 4.28-7.8 3.73-6.17 3.33-5.02 3.05-4.17 2.8-3.53 2.6-3.03 2.46-2.62 2.34-2.28 2.2-2 2.15-1.76 2.04-1.55 2-1.4 1.94-1.22 1.9-1.1 1.87-.98 1.85-.87.8-.33" stroke="#5e5e5e" stroke-width="2" fill="none"/><path d="M4182.55 640.98l-1.05.02v-2l1-.02z" fill="#5e5e5e"/><path d="M4355.33 400.64l-13.06 7.38-1.84-9.1z" stroke="#5e5e5e" stroke-width="2" fill="#5e5e5e"/><path d="M3661 729.98l5.58-.12 6.05-.38 5.63-.6 5.27-.76 4.98-.95 4.75-1.1 4.56-1.3 4.42-1.42 4.32-1.6 4.27-1.8 4.27-2 4.3-2.26 4.46-2.58 4.68-2.97 5.1-3.55 5.92-4.5 7.95-6.6 31.5-27.6 5.9-4.5 5.12-3.55 4.67-2.97 4.44-2.57 4.33-2.24 4.26-2 4.25-1.8 4.32-1.6 4.42-1.44 4.55-1.28 4.74-1.1 4.97-.96 5.07-.75" stroke="#5e5e5e" stroke-width="2" fill="none"/><path d="M3661.04 730.98l-1.04.02v-2l1-.02z" fill="#5e5e5e"/><path d="M3855.27 640.2l-13.95 5.5-.57-9.25z" stroke="#5e5e5e" stroke-width="2" fill="#5e5e5e"/><path d="M4360 286c0-3.3 2.7-6 6-6h308c3.3 0 6 2.7 6 6v228c0 3.3-2.7 6-6 6h-308c-3.3 0-6-2.7-6-6z" stroke="#5e5e5e" stroke-width="3" fill-opacity="0"/><g><use xlink:href="#z" transform="matrix(1,0,0,1,4368,288) translate(94.03703703703702 17.77777777777778)"/></g><path d="M900 46c0-3.3 2.7-6 6-6h308c3.3 0 6 2.7 6 6v228c0 3.3-2.7 6-6 6H906c-3.3 0-6-2.7-6-6z" stroke="#5e5e5e" stroke-width="3" fill-opacity="0"/><g><use xlink:href="#z" transform="matrix(1,0,0,1,908,48) translate(94.03703703703702 17.77777777777778)"/></g><path d="M-480 446c0-3.3 2.7-6 6-6h308c3.3 0 6 2.7 6 6v228c0 3.3-2.7 6-6 6h-308c-3.3 0-6-2.7-6-6z" stroke="#5e5e5e" stroke-width="3" fill-opacity="0"/><g><use xlink:href="#z" transform="matrix(1,0,0,1,-472,448) translate(94.03703703703702 17.77777777777778)"/></g><path d="M-400 516c0-3.3 2.7-6 6-6h148c3.3 0 6 2.7 6 6v108c0 3.3-2.7 6-6 6h-148c-3.3 0-6-2.7-6-6z" stroke="#5e5e5e" stroke-width="3" fill="#fff"/><g><use xlink:href="#au" transform="matrix(1,0,0,1,-388,522) translate(13.74074074074074 38.77777777777778)"/><use xlink:href="#av" transform="matrix(1,0,0,1,-388,522) translate(81.58024691358025 38.77777777777778)"/><use xlink:href="#aw" transform="matrix(1,0,0,1,-388,522) translate(34.7283950617284 65.44444444444446)"/></g><path d="M-157.5 560h219" stroke="#5e5e5e" stroke-width="2" fill="none"/><path d="M-157.47 561h-1.03v-2h1.03z" fill="#5e5e5e"/><path d="M76.76 560l-14.26 4.64v-9.28z" stroke="#5e5e5e" stroke-width="2" fill="#5e5e5e"/><g><use xlink:href="#ax" transform="matrix(1,0,0,1,-141.76364336665318,521.3333333333334) translate(0.0049999999999954525 23.11111111111111)"/><use xlink:href="#ay" transform="matrix(1,0,0,1,-141.76364336665318,521.3333333333334) translate(97.74574074074074 23.11111111111111)"/><use xlink:href="#az" transform="matrix(1,0,0,1,-141.76364336665318,521.3333333333334) translate(161.86302469135802 23.11111111111111)"/></g><defs><path fill="#333" d="M27 0v-27h64v-190l-56 39v-29l58-41h29v221h61V0H27" id="aA"/><path fill="#333" d="M33 0v-38h34V0H33" id="aB"/><g id="a"><use transform="matrix(0.06172839506172839,0,0,0.06172839506172839,0,0)" xlink:href="#aA"/><use transform="matrix(0.06172839506172839,0,0,0.06172839506172839,12.345679012345679,0)" xlink:href="#aB"/></g><path fill="#333" d="M85-194c31 0 48 13 60 33l-1-100h32l1 261h-30c-2-10 0-23-3-31C134-8 116 4 85 4 32 4 16-35 15-94c0-66 23-100 70-100zm9 24c-40 0-46 34-46 75 0 40 6 74 45 74 42 0 51-32 51-76 0-42-9-74-50-73" id="aC"/><path fill="#333" d="M141-36C126-15 110 5 73 4 37 3 15-17 15-53c-1-64 63-63 125-63 3-35-9-54-41-54-24 1-41 7-42 31l-33-3c5-37 33-52 76-52 45 0 72 20 72 64v82c-1 20 7 32 28 27v20c-31 9-61-2-59-35zM48-53c0 20 12 33 32 33 41-3 63-29 60-74-43 2-92-5-92 41" id="aD"/><path fill="#333" d="M59-47c-2 24 18 29 38 22v24C64 9 27 4 27-40v-127H5v-23h24l9-43h21v43h35v23H59v120" id="aE"/><path fill="#333" d="M135-143c-3-34-86-38-87 0 15 53 115 12 119 90S17 21 10-45l28-5c4 36 97 45 98 0-10-56-113-15-118-90-4-57 82-63 122-42 12 7 21 19 24 35" id="aF"/><path fill="#333" d="M100-194c63 0 86 42 84 106H49c0 40 14 67 53 68 26 1 43-12 49-29l28 8c-11 28-37 45-77 45C44 4 14-33 15-96c1-61 26-98 85-98zm52 81c6-60-76-77-97-28-3 7-6 17-6 28h103" id="aG"/><g id="b"><use transform="matrix(0.06172839506172839,0,0,0.06172839506172839,0,0)" xlink:href="#aC"/><use transform="matrix(0.06172839506172839,0,0,0.06172839506172839,12.345679012345679,0)" xlink:href="#aD"/><use transform="matrix(0.06172839506172839,0,0,0.06172839506172839,24.691358024691358,0)" xlink:href="#aE"/><use transform="matrix(0.06172839506172839,0,0,0.06172839506172839,30.864197530864196,0)" xlink:href="#aD"/><use transform="matrix(0.06172839506172839,0,0,0.06172839506172839,43.20987654320987,0)" xlink:href="#aF"/><use transform="matrix(0.06172839506172839,0,0,0.06172839506172839,54.32098765432099,0)" xlink:href="#aG"/><use transform="matrix(0.06172839506172839,0,0,0.06172839506172839,66.66666666666667,0)" xlink:href="#aE"/></g><path fill="#333" d="M101-234c-31-9-42 10-38 44h38v23H63V0H32v-167H5v-23h27c-7-52 17-82 69-68v24" id="aH"/><path fill="#333" d="M100-194c62-1 85 37 85 99 1 63-27 99-86 99S16-35 15-95c0-66 28-99 85-99zM99-20c44 1 53-31 53-75 0-43-8-75-51-75s-53 32-53 75 10 74 51 75" id="aI"/><path fill="#333" d="M114-163C36-179 61-72 57 0H25l-1-190h30c1 12-1 29 2 39 6-27 23-49 58-41v29" id="aJ"/><g id="c"><use transform="matrix(0.06172839506172839,0,0,0.06172839506172839,0,0)" xlink:href="#aH"/><use transform="matrix(0.06172839506172839,0,0,0.06172839506172839,6.172839506172839,0)" xlink:href="#aI"/><use transform="matrix(0.06172839506172839,0,0,0.06172839506172839,18.51851851851852,0)" xlink:href="#aJ"/></g><path fill="#333" d="M96-169c-40 0-48 33-48 73s9 75 48 75c24 0 41-14 43-38l32 2c-6 37-31 61-74 61-59 0-76-41-82-99-10-93 101-131 147-64 4 7 5 14 7 22l-32 3c-4-21-16-35-41-35" id="aK"/><path fill="#333" d="M108 0H70L1-190h34L89-25l56-165h34" id="aL"/><path fill="#333" d="M24 0v-261h32V0H24" id="aM"/><path fill="#333" d="M24-231v-30h32v30H24zM24 0v-190h32V0H24" id="aN"/><path fill="#333" d="M117-194c89-4 53 116 60 194h-32v-121c0-31-8-49-39-48C34-167 62-67 57 0H25l-1-190h30c1 10-1 24 2 32 11-22 29-35 61-36" id="aO"/><g id="d"><use transform="matrix(0.06172839506172839,0,0,0.06172839506172839,0,0)" xlink:href="#aK"/><use transform="matrix(0.06172839506172839,0,0,0.06172839506172839,11.11111111111111,0)" xlink:href="#aJ"/><use transform="matrix(0.06172839506172839,0,0,0.06172839506172839,18.45679012345679,0)" xlink:href="#aI"/><use transform="matrix(0.06172839506172839,0,0,0.06172839506172839,30.80246913580247,0)" xlink:href="#aF"/><use transform="matrix(0.06172839506172839,0,0,0.06172839506172839,41.91358024691358,0)" xlink:href="#aF"/><use transform="matrix(0.06172839506172839,0,0,0.06172839506172839,53.0246913580247,0)" xlink:href="#aL"/><use transform="matrix(0.06172839506172839,0,0,0.06172839506172839,64.13580246913581,0)" xlink:href="#aD"/><use transform="matrix(0.06172839506172839,0,0,0.06172839506172839,76.4814814814815,0)" xlink:href="#aM"/><use transform="matrix(0.06172839506172839,0,0,0.06172839506172839,81.35802469135804,0)" xlink:href="#aN"/><use transform="matrix(0.06172839506172839,0,0,0.06172839506172839,86.23456790123458,0)" xlink:href="#aC"/><use transform="matrix(0.06172839506172839,0,0,0.06172839506172839,98.58024691358027,0)" xlink:href="#aD"/><use transform="matrix(0.06172839506172839,0,0,0.06172839506172839,110.92592592592595,0)" xlink:href="#aE"/><use transform="matrix(0.06172839506172839,0,0,0.06172839506172839,117.09876543209879,0)" xlink:href="#aN"/><use transform="matrix(0.06172839506172839,0,0,0.06172839506172839,121.97530864197533,0)" xlink:href="#aI"/><use transform="matrix(0.06172839506172839,0,0,0.06172839506172839,134.32098765432102,0)" xlink:href="#aO"/></g><path fill="#333" d="M101-251c82-7 93 87 43 132L82-64C71-53 59-42 53-27h129V0H18c2-99 128-94 128-182 0-28-16-43-45-43s-46 15-49 41l-32-3c6-41 34-60 81-64" id="aP"/><g id="e"><use transform="matrix(0.06172839506172839,0,0,0.06172839506172839,0,0)" xlink:href="#aP"/><use transform="matrix(0.06172839506172839,0,0,0.06172839506172839,12.345679012345679,0)" xlink:href="#aB"/></g><g id="f"><use transform="matrix(0.06172839506172839,0,0,0.06172839506172839,0,0)" xlink:href="#aI"/><use transform="matrix(0.06172839506172839,0,0,0.06172839506172839,12.345679012345679,0)" xlink:href="#aO"/><use transform="matrix(0.06172839506172839,0,0,0.06172839506172839,24.691358024691358,0)" xlink:href="#aG"/></g><g id="g"><use transform="matrix(0.06172839506172839,0,0,0.06172839506172839,0,0)" xlink:href="#aC"/><use transform="matrix(0.06172839506172839,0,0,0.06172839506172839,12.345679012345679,0)" xlink:href="#aD"/><use transform="matrix(0.06172839506172839,0,0,0.06172839506172839,24.691358024691358,0)" xlink:href="#aE"/><use transform="matrix(0.06172839506172839,0,0,0.06172839506172839,30.864197530864196,0)" xlink:href="#aD"/><use transform="matrix(0.06172839506172839,0,0,0.06172839506172839,43.20987654320987,0)" xlink:href="#aF"/><use transform="matrix(0.06172839506172839,0,0,0.06172839506172839,54.32098765432099,0)" xlink:href="#aG"/><use transform="matrix(0.06172839506172839,0,0,0.06172839506172839,66.66666666666667,0)" xlink:href="#aE"/></g><g id="h"><use transform="matrix(0.06172839506172839,0,0,0.06172839506172839,0,0)" xlink:href="#aH"/><use transform="matrix(0.06172839506172839,0,0,0.06172839506172839,6.172839506172839,0)" xlink:href="#aI"/><use transform="matrix(0.06172839506172839,0,0,0.06172839506172839,18.51851851851852,0)" xlink:href="#aJ"/></g><g id="i"><use transform="matrix(0.06172839506172839,0,0,0.06172839506172839,0,0)" xlink:href="#aE"/><use transform="matrix(0.06172839506172839,0,0,0.06172839506172839,6.172839506172839,0)" xlink:href="#aG"/><use transform="matrix(0.06172839506172839,0,0,0.06172839506172839,18.51851851851852,0)" xlink:href="#aF"/><use transform="matrix(0.06172839506172839,0,0,0.06172839506172839,29.62962962962963,0)" xlink:href="#aE"/></g><g id="j"><use transform="matrix(0.06172839506172839,0,0,0.06172839506172839,0,0)" xlink:href="#aD"/><use transform="matrix(0.06172839506172839,0,0,0.06172839506172839,12.345679012345679,0)" xlink:href="#aO"/><use transform="matrix(0.06172839506172839,0,0,0.06172839506172839,24.691358024691358,0)" xlink:href="#aC"/></g><path fill="#333" d="M106-169C34-169 62-67 57 0H25v-261h32l-1 103c12-21 28-36 61-36 89 0 53 116 60 194h-32v-121c2-32-8-49-39-48" id="aQ"/><g id="k"><use transform="matrix(0.06172839506172839,0,0,0.06172839506172839,0,0)" xlink:href="#aD"/><use transform="matrix(0.06172839506172839,0,0,0.06172839506172839,12.345679012345679,0)" xlink:href="#aO"/><use transform="matrix(0.06172839506172839,0,0,0.06172839506172839,24.691358024691358,0)" xlink:href="#aI"/><use transform="matrix(0.06172839506172839,0,0,0.06172839506172839,37.03703703703704,0)" xlink:href="#aE"/><use transform="matrix(0.06172839506172839,0,0,0.06172839506172839,43.20987654320988,0)" xlink:href="#aQ"/><use transform="matrix(0.06172839506172839,0,0,0.06172839506172839,55.55555555555556,0)" xlink:href="#aG"/><use transform="matrix(0.06172839506172839,0,0,0.06172839506172839,67.90123456790124,0)" xlink:href="#aJ"/></g><path fill="#333" d="M206 0h-36l-40-164L89 0H53L-1-190h32L70-26l43-164h34l41 164 42-164h31" id="aR"/><g id="l"><use transform="matrix(0.06172839506172839,0,0,0.06172839506172839,0,0)" xlink:href="#aO"/><use transform="matrix(0.06172839506172839,0,0,0.06172839506172839,12.345679012345679,0)" xlink:href="#aG"/><use transform="matrix(0.06172839506172839,0,0,0.06172839506172839,24.691358024691358,0)" xlink:href="#aR"/></g><g id="m"><use transform="matrix(0.06172839506172839,0,0,0.06172839506172839,0,0)" xlink:href="#aC"/><use transform="matrix(0.06172839506172839,0,0,0.06172839506172839,12.345679012345679,0)" xlink:href="#aD"/><use transform="matrix(0.06172839506172839,0,0,0.06172839506172839,24.691358024691358,0)" xlink:href="#aE"/><use transform="matrix(0.06172839506172839,0,0,0.06172839506172839,30.864197530864196,0)" xlink:href="#aD"/></g><g id="n"><use transform="matrix(0.06172839506172839,0,0,0.06172839506172839,0,0)" xlink:href="#aK"/><use transform="matrix(0.06172839506172839,0,0,0.06172839506172839,11.11111111111111,0)" xlink:href="#aF"/><use transform="matrix(0.06172839506172839,0,0,0.06172839506172839,22.22222222222222,0)" xlink:href="#aL"/></g><g id="o"><use transform="matrix(0.06172839506172839,0,0,0.06172839506172839,0,0)" xlink:href="#aI"/><use transform="matrix(0.06172839506172839,0,0,0.06172839506172839,12.345679012345679,0)" xlink:href="#aJ"/></g><g id="p"><use transform="matrix(0.06172839506172839,0,0,0.06172839506172839,0,0)" xlink:href="#aE"/><use transform="matrix(0.06172839506172839,0,0,0.06172839506172839,6.172839506172839,0)" xlink:href="#aF"/><use transform="matrix(0.06172839506172839,0,0,0.06172839506172839,17.28395061728395,0)" xlink:href="#aL"/></g><g id="q"><use transform="matrix(0.06172839506172839,0,0,0.06172839506172839,0,0)" xlink:href="#aM"/><use transform="matrix(0.06172839506172839,0,0,0.06172839506172839,4.876543209876543,0)" xlink:href="#aI"/><use transform="matrix(0.06172839506172839,0,0,0.06172839506172839,17.22222222222222,0)" xlink:href="#aD"/><use transform="matrix(0.06172839506172839,0,0,0.06172839506172839,29.5679012345679,0)" xlink:href="#aC"/></g><g id="r"><use transform="matrix(0.06172839506172839,0,0,0.06172839506172839,0,0)" xlink:href="#aC"/><use transform="matrix(0.06172839506172839,0,0,0.06172839506172839,12.345679012345679,0)" xlink:href="#aD"/><use transform="matrix(0.06172839506172839,0,0,0.06172839506172839,24.691358024691358,0)" xlink:href="#aE"/><use transform="matrix(0.06172839506172839,0,0,0.06172839506172839,30.864197530864196,0)" xlink:href="#aD"/><use transform="matrix(0.06172839506172839,0,0,0.06172839506172839,43.20987654320987,0)" xlink:href="#aF"/><use transform="matrix(0.06172839506172839,0,0,0.06172839506172839,54.32098765432099,0)" xlink:href="#aG"/><use transform="matrix(0.06172839506172839,0,0,0.06172839506172839,66.66666666666667,0)" xlink:href="#aE"/></g><path fill="#333" d="M26 75v-336h71v23H56V52h41v23H26" id="aS"/><path fill="#333" d="M3 75V52h41v-290H3v-23h71V75H3" id="aT"/><g id="s"><use transform="matrix(0.06172839506172839,0,0,0.06172839506172839,0,0)" xlink:href="#aS"/><use transform="matrix(0.06172839506172839,0,0,0.06172839506172839,6.172839506172839,0)" xlink:href="#aA"/><use transform="matrix(0.06172839506172839,0,0,0.06172839506172839,18.51851851851852,0)" xlink:href="#aT"/><use transform="matrix(0.06172839506172839,0,0,0.06172839506172839,24.691358024691358,0)" xlink:href="#aB"/></g><g id="t"><use transform="matrix(0.06172839506172839,0,0,0.06172839506172839,0,0)" xlink:href="#aK"/><use transform="matrix(0.06172839506172839,0,0,0.06172839506172839,11.11111111111111,0)" xlink:href="#aF"/><use transform="matrix(0.06172839506172839,0,0,0.06172839506172839,22.22222222222222,0)" xlink:href="#aL"/></g><g id="u"><use transform="matrix(0.06172839506172839,0,0,0.06172839506172839,0,0)" xlink:href="#aM"/><use transform="matrix(0.06172839506172839,0,0,0.06172839506172839,4.876543209876543,0)" xlink:href="#aI"/><use transform="matrix(0.06172839506172839,0,0,0.06172839506172839,17.22222222222222,0)" xlink:href="#aD"/><use transform="matrix(0.06172839506172839,0,0,0.06172839506172839,29.5679012345679,0)" xlink:href="#aC"/></g><g id="v"><use transform="matrix(0.06172839506172839,0,0,0.06172839506172839,0,0)" xlink:href="#aK"/><use transform="matrix(0.06172839506172839,0,0,0.06172839506172839,11.11111111111111,0)" xlink:href="#aM"/><use transform="matrix(0.06172839506172839,0,0,0.06172839506172839,15.987654320987653,0)" xlink:href="#aD"/><use transform="matrix(0.06172839506172839,0,0,0.06172839506172839,28.333333333333332,0)" xlink:href="#aF"/><use transform="matrix(0.06172839506172839,0,0,0.06172839506172839,39.44444444444444,0)" xlink:href="#aF"/><use transform="matrix(0.06172839506172839,0,0,0.06172839506172839,50.55555555555556,0)" xlink:href="#aN"/><use transform="matrix(0.06172839506172839,0,0,0.06172839506172839,55.4320987654321,0)" xlink:href="#aH"/><use transform="matrix(0.06172839506172839,0,0,0.06172839506172839,61.604938271604944,0)" xlink:href="#aN"/><use transform="matrix(0.06172839506172839,0,0,0.06172839506172839,66.48148148148148,0)" xlink:href="#aK"/><use transform="matrix(0.06172839506172839,0,0,0.06172839506172839,77.5925925925926,0)" xlink:href="#aD"/><use transform="matrix(0.06172839506172839,0,0,0.06172839506172839,89.93827160493828,0)" xlink:href="#aE"/><use transform="matrix(0.06172839506172839,0,0,0.06172839506172839,96.11111111111111,0)" xlink:href="#aN"/><use transform="matrix(0.06172839506172839,0,0,0.06172839506172839,100.98765432098766,0)" xlink:href="#aI"/><use transform="matrix(0.06172839506172839,0,0,0.06172839506172839,113.33333333333334,0)" xlink:href="#aO"/></g><path fill="#333" d="M177-190C167-65 218 103 67 71c-23-6-38-20-44-43l32-5c15 47 100 32 89-28v-30C133-14 115 1 83 1 29 1 15-40 15-95c0-56 16-97 71-98 29-1 48 16 59 35 1-10 0-23 2-32h30zM94-22c36 0 50-32 50-73 0-42-14-75-50-75-39 0-46 34-46 75s6 73 46 73" id="aU"/><g id="w"><use transform="matrix(0.06172839506172839,0,0,0.06172839506172839,0,0)" xlink:href="#aJ"/><use transform="matrix(0.06172839506172839,0,0,0.06172839506172839,7.345679012345679,0)" xlink:href="#aG"/><use transform="matrix(0.06172839506172839,0,0,0.06172839506172839,19.691358024691358,0)" xlink:href="#aU"/><use transform="matrix(0.06172839506172839,0,0,0.06172839506172839,32.03703703703704,0)" xlink:href="#aJ"/><use transform="matrix(0.06172839506172839,0,0,0.06172839506172839,39.382716049382715,0)" xlink:href="#aG"/><use transform="matrix(0.06172839506172839,0,0,0.06172839506172839,51.72839506172839,0)" xlink:href="#aF"/><use transform="matrix(0.06172839506172839,0,0,0.06172839506172839,62.839506172839506,0)" xlink:href="#aF"/><use transform="matrix(0.06172839506172839,0,0,0.06172839506172839,73.95061728395062,0)" xlink:href="#aN"/><use transform="matrix(0.06172839506172839,0,0,0.06172839506172839,78.82716049382717,0)" xlink:href="#aI"/><use transform="matrix(0.06172839506172839,0,0,0.06172839506172839,91.17283950617285,0)" xlink:href="#aO"/></g><path fill="#333" d="M126-127c33 6 58 20 58 59 0 88-139 92-164 29-3-8-5-16-6-25l32-3c6 27 21 44 54 44 32 0 52-15 52-46 0-38-36-46-79-43v-28c39 1 72-4 72-42 0-27-17-43-46-43-28 0-47 15-49 41l-32-3c6-42 35-63 81-64 48-1 79 21 79 65 0 36-21 52-52 59" id="aV"/><g id="x"><use transform="matrix(0.06172839506172839,0,0,0.06172839506172839,0,0)" xlink:href="#aV"/><use transform="matrix(0.06172839506172839,0,0,0.06172839506172839,12.345679012345679,0)" xlink:href="#aB"/></g><path fill="#333" d="M84 4C-5 8 30-112 23-190h32v120c0 31 7 50 39 49 72-2 45-101 50-169h31l1 190h-30c-1-10 1-25-2-33-11 22-28 36-60 37" id="aW"/><g id="y"><use transform="matrix(0.06172839506172839,0,0,0.06172839506172839,0,0)" xlink:href="#aK"/><use transform="matrix(0.06172839506172839,0,0,0.06172839506172839,11.11111111111111,0)" xlink:href="#aM"/><use transform="matrix(0.06172839506172839,0,0,0.06172839506172839,15.987654320987653,0)" xlink:href="#aW"/><use transform="matrix(0.06172839506172839,0,0,0.06172839506172839,28.333333333333332,0)" xlink:href="#aF"/><use transform="matrix(0.06172839506172839,0,0,0.06172839506172839,39.44444444444444,0)" xlink:href="#aE"/><use transform="matrix(0.06172839506172839,0,0,0.06172839506172839,45.617283950617285,0)" xlink:href="#aG"/><use transform="matrix(0.06172839506172839,0,0,0.06172839506172839,57.96296296296296,0)" xlink:href="#aJ"/><use transform="matrix(0.06172839506172839,0,0,0.06172839506172839,65.30864197530865,0)" xlink:href="#aN"/><use transform="matrix(0.06172839506172839,0,0,0.06172839506172839,70.18518518518519,0)" xlink:href="#aO"/><use transform="matrix(0.06172839506172839,0,0,0.06172839506172839,82.53086419753087,0)" xlink:href="#aU"/></g><path fill="#333" d="M212-179c-10-28-35-45-73-45-59 0-87 40-87 99 0 60 29 101 89 101 43 0 62-24 78-52l27 14C228-24 195 4 139 4 59 4 22-46 18-125c-6-104 99-153 187-111 19 9 31 26 39 46" id="aX"/><g id="z"><use transform="matrix(0.06172839506172839,0,0,0.06172839506172839,0,0)" xlink:href="#aX"/><use transform="matrix(0.06172839506172839,0,0,0.06172839506172839,15.987654320987653,0)" xlink:href="#aI"/><use transform="matrix(0.06172839506172839,0,0,0.06172839506172839,28.333333333333332,0)" xlink:href="#aO"/><use transform="matrix(0.06172839506172839,0,0,0.06172839506172839,40.67901234567901,0)" xlink:href="#aE"/><use transform="matrix(0.06172839506172839,0,0,0.06172839506172839,46.851851851851855,0)" xlink:href="#aG"/><use transform="matrix(0.06172839506172839,0,0,0.06172839506172839,59.19753086419753,0)" xlink:href="#aO"/><use transform="matrix(0.06172839506172839,0,0,0.06172839506172839,71.54320987654322,0)" xlink:href="#aG"/><use transform="matrix(0.06172839506172839,0,0,0.06172839506172839,83.8888888888889,0)" xlink:href="#aC"/><use transform="matrix(0.06172839506172839,0,0,0.06172839506172839,96.23456790123458,0)" xlink:href="#aI"/><use transform="matrix(0.06172839506172839,0,0,0.06172839506172839,108.58024691358027,0)" xlink:href="#aJ"/></g><path fill="#333" d="M143 0L79-87 56-68V0H24v-261h32v163l83-92h37l-77 82L181 0h-38" id="aY"/><g id="A"><use transform="matrix(0.06172839506172839,0,0,0.06172839506172839,0,0)" xlink:href="#aY"/><use transform="matrix(0.06172839506172839,0,0,0.06172839506172839,11.11111111111111,0)" xlink:href="#aO"/><use transform="matrix(0.06172839506172839,0,0,0.06172839506172839,23.45679012345679,0)" xlink:href="#aO"/></g><path fill="#333" d="M185-189c-5-48-123-54-124 2 14 75 158 14 163 119 3 78-121 87-175 55-17-10-28-26-33-46l33-7c5 56 141 63 141-1 0-78-155-14-162-118-5-82 145-84 179-34 5 7 8 16 11 25" id="aZ"/><path fill="#333" d="M137 0h-34L2-248h35l83 218 83-218h36" id="ba"/><g id="B"><use transform="matrix(0.06172839506172839,0,0,0.06172839506172839,0,0)" xlink:href="#aM"/><use transform="matrix(0.06172839506172839,0,0,0.06172839506172839,4.876543209876543,0)" xlink:href="#aN"/><use transform="matrix(0.06172839506172839,0,0,0.06172839506172839,9.753086419753085,0)" xlink:href="#aO"/><use transform="matrix(0.06172839506172839,0,0,0.06172839506172839,22.098765432098766,0)" xlink:href="#aG"/><use transform="matrix(0.06172839506172839,0,0,0.06172839506172839,34.44444444444444,0)" xlink:href="#aD"/><use transform="matrix(0.06172839506172839,0,0,0.06172839506172839,46.79012345679012,0)" xlink:href="#aJ"/><use transform="matrix(0.06172839506172839,0,0,0.06172839506172839,54.1358024691358,0)" xlink:href="#aZ"/><use transform="matrix(0.06172839506172839,0,0,0.06172839506172839,68.9506172839506,0)" xlink:href="#ba"/><use transform="matrix(0.06172839506172839,0,0,0.06172839506172839,83.76543209876542,0)" xlink:href="#aX"/></g><g id="C"><use transform="matrix(0.06172839506172839,0,0,0.06172839506172839,0,0)" xlink:href="#aZ"/><use transform="matrix(0.06172839506172839,0,0,0.06172839506172839,14.814814814814813,0)" xlink:href="#ba"/><use transform="matrix(0.06172839506172839,0,0,0.06172839506172839,29.629629629629626,0)" xlink:href="#aX"/></g><path fill="#333" d="M115-194c53 0 69 39 70 98 0 66-23 100-70 100C84 3 66-7 56-30L54 0H23l1-261h32v101c10-23 28-34 59-34zm-8 174c40 0 45-34 45-75 0-40-5-75-45-74-42 0-51 32-51 76 0 43 10 73 51 73" id="bb"/><g id="D"><use transform="matrix(0.06172839506172839,0,0,0.06172839506172839,0,0)" xlink:href="#aJ"/><use transform="matrix(0.06172839506172839,0,0,0.06172839506172839,7.345679012345679,0)" xlink:href="#bb"/><use transform="matrix(0.06172839506172839,0,0,0.06172839506172839,19.691358024691358,0)" xlink:href="#aH"/></g><path fill="#333" d="M155-56V0h-30v-56H8v-25l114-167h33v167h35v25h-35zm-30-156c-27 46-58 90-88 131h88v-131" id="bc"/><g id="E"><use transform="matrix(0.06172839506172839,0,0,0.06172839506172839,0,0)" xlink:href="#bc"/><use transform="matrix(0.06172839506172839,0,0,0.06172839506172839,12.345679012345679,0)" xlink:href="#aB"/></g><g id="F"><use transform="matrix(0.06172839506172839,0,0,0.06172839506172839,0,0)" xlink:href="#aO"/><use transform="matrix(0.06172839506172839,0,0,0.06172839506172839,12.345679012345679,0)" xlink:href="#aD"/><use transform="matrix(0.06172839506172839,0,0,0.06172839506172839,24.691358024691358,0)" xlink:href="#aN"/><use transform="matrix(0.06172839506172839,0,0,0.06172839506172839,29.5679012345679,0)" xlink:href="#aL"/><use transform="matrix(0.06172839506172839,0,0,0.06172839506172839,40.67901234567901,0)" xlink:href="#aG"/></g><path fill="#333" d="M179-190L93 31C79 59 56 82 12 73V49c39 6 53-20 64-50L1-190h34L92-34l54-156h33" id="bd"/><g id="G"><use transform="matrix(0.06172839506172839,0,0,0.06172839506172839,0,0)" xlink:href="#bb"/><use transform="matrix(0.06172839506172839,0,0,0.06172839506172839,12.345679012345679,0)" xlink:href="#aD"/><use transform="matrix(0.06172839506172839,0,0,0.06172839506172839,24.691358024691358,0)" xlink:href="#bd"/><use transform="matrix(0.06172839506172839,0,0,0.06172839506172839,35.80246913580247,0)" xlink:href="#aG"/><use transform="matrix(0.06172839506172839,0,0,0.06172839506172839,48.148148148148145,0)" xlink:href="#aF"/></g><g id="H"><use transform="matrix(0.06172839506172839,0,0,0.06172839506172839,0,0)" xlink:href="#aM"/><use transform="matrix(0.06172839506172839,0,0,0.06172839506172839,4.876543209876543,0)" xlink:href="#aD"/><use transform="matrix(0.06172839506172839,0,0,0.06172839506172839,17.22222222222222,0)" xlink:href="#aF"/><use transform="matrix(0.06172839506172839,0,0,0.06172839506172839,28.333333333333332,0)" xlink:href="#aF"/><use transform="matrix(0.06172839506172839,0,0,0.06172839506172839,39.44444444444444,0)" xlink:href="#aI"/></g><path fill="#333" d="M233-177c-1 41-23 64-60 70L243 0h-38l-65-103H63V0H30v-248c88 3 205-21 203 71zM63-129c60-2 137 13 137-47 0-61-80-42-137-45v92" id="be"/><g id="I"><use transform="matrix(0.06172839506172839,0,0,0.06172839506172839,0,0)" xlink:href="#aZ"/><use transform="matrix(0.06172839506172839,0,0,0.06172839506172839,14.814814814814813,0)" xlink:href="#ba"/><use transform="matrix(0.06172839506172839,0,0,0.06172839506172839,29.629629629629626,0)" xlink:href="#be"/></g><g id="J"><use transform="matrix(0.06172839506172839,0,0,0.06172839506172839,0,0)" xlink:href="#aM"/><use transform="matrix(0.06172839506172839,0,0,0.06172839506172839,4.876543209876543,0)" xlink:href="#aN"/><use transform="matrix(0.06172839506172839,0,0,0.06172839506172839,9.753086419753085,0)" xlink:href="#aO"/><use transform="matrix(0.06172839506172839,0,0,0.06172839506172839,22.098765432098766,0)" xlink:href="#aG"/><use transform="matrix(0.06172839506172839,0,0,0.06172839506172839,34.44444444444444,0)" xlink:href="#aD"/><use transform="matrix(0.06172839506172839,0,0,0.06172839506172839,46.79012345679012,0)" xlink:href="#aJ"/></g><path fill="#333" d="M143 4C61 4 22-44 18-125c-5-107 100-154 193-111 17 8 29 25 37 43l-32 9c-13-25-37-40-76-40-61 0-88 39-88 99 0 61 29 100 91 101 35 0 62-11 79-27v-45h-74v-28h105v86C228-13 192 4 143 4" id="bf"/><path fill="#333" d="M30-248c118-7 216 8 213 122C240-48 200 0 122 0H30v-248zM63-27c89 8 146-16 146-99s-60-101-146-95v194" id="bg"/><g id="K"><use transform="matrix(0.06172839506172839,0,0,0.06172839506172839,0,0)" xlink:href="#aZ"/><use transform="matrix(0.06172839506172839,0,0,0.06172839506172839,14.814814814814813,0)" xlink:href="#bf"/><use transform="matrix(0.06172839506172839,0,0,0.06172839506172839,32.09876543209876,0)" xlink:href="#bg"/></g><path fill="#333" d="M115-194c55 1 70 41 70 98S169 2 115 4C84 4 66-9 55-30l1 105H24l-1-265h31l2 30c10-21 28-34 59-34zm-8 174c40 0 45-34 45-75s-6-73-45-74c-42 0-51 32-51 76 0 43 10 73 51 73" id="bh"/><g id="L"><use transform="matrix(0.06172839506172839,0,0,0.06172839506172839,0,0)" xlink:href="#aF"/><use transform="matrix(0.06172839506172839,0,0,0.06172839506172839,11.11111111111111,0)" xlink:href="#bh"/><use transform="matrix(0.06172839506172839,0,0,0.06172839506172839,23.45679012345679,0)" xlink:href="#aG"/><use transform="matrix(0.06172839506172839,0,0,0.06172839506172839,35.80246913580247,0)" xlink:href="#aK"/><use transform="matrix(0.06172839506172839,0,0,0.06172839506172839,46.91358024691358,0)" xlink:href="#aE"/><use transform="matrix(0.06172839506172839,0,0,0.06172839506172839,53.086419753086425,0)" xlink:href="#aJ"/><use transform="matrix(0.06172839506172839,0,0,0.06172839506172839,60.4320987654321,0)" xlink:href="#aD"/><use transform="matrix(0.06172839506172839,0,0,0.06172839506172839,72.77777777777779,0)" xlink:href="#aM"/></g><path fill="#333" d="M210-169c-67 3-38 105-44 169h-31v-121c0-29-5-50-35-48C34-165 62-65 56 0H25l-1-190h30c1 10-1 24 2 32 10-44 99-50 107 0 11-21 27-35 58-36 85-2 47 119 55 194h-31v-121c0-29-5-49-35-48" id="bi"/><g id="M"><use transform="matrix(0.06172839506172839,0,0,0.06172839506172839,0,0)" xlink:href="#bi"/><use transform="matrix(0.06172839506172839,0,0,0.06172839506172839,18.456790123456788,0)" xlink:href="#aN"/><use transform="matrix(0.06172839506172839,0,0,0.06172839506172839,23.33333333333333,0)" xlink:href="#aO"/><use transform="matrix(0.06172839506172839,0,0,0.06172839506172839,35.679012345679006,0)" xlink:href="#aN"/><use transform="matrix(0.06172839506172839,0,0,0.06172839506172839,40.55555555555555,0)" xlink:href="#bb"/><use transform="matrix(0.06172839506172839,0,0,0.06172839506172839,52.90123456790123,0)" xlink:href="#aD"/><use transform="matrix(0.06172839506172839,0,0,0.06172839506172839,65.24691358024691,0)" xlink:href="#aE"/><use transform="matrix(0.06172839506172839,0,0,0.06172839506172839,71.41975308641975,0)" xlink:href="#aK"/><use transform="matrix(0.06172839506172839,0,0,0.06172839506172839,82.53086419753086,0)" xlink:href="#aQ"/></g><g id="N"><use transform="matrix(0.06172839506172839,0,0,0.06172839506172839,0,0)" xlink:href="#aY"/><use transform="matrix(0.06172839506172839,0,0,0.06172839506172839,11.11111111111111,0)" xlink:href="#bi"/><use transform="matrix(0.06172839506172839,0,0,0.06172839506172839,29.5679012345679,0)" xlink:href="#aG"/><use transform="matrix(0.06172839506172839,0,0,0.06172839506172839,41.913580246913575,0)" xlink:href="#aD"/><use transform="matrix(0.06172839506172839,0,0,0.06172839506172839,54.25925925925925,0)" xlink:href="#aO"/><use transform="matrix(0.06172839506172839,0,0,0.06172839506172839,66.60493827160494,0)" xlink:href="#aF"/></g><g id="O"><use transform="matrix(0.06172839506172839,0,0,0.06172839506172839,0,0)" xlink:href="#bi"/><use transform="matrix(0.06172839506172839,0,0,0.06172839506172839,18.456790123456788,0)" xlink:href="#aG"/><use transform="matrix(0.06172839506172839,0,0,0.06172839506172839,30.80246913580247,0)" xlink:href="#aD"/><use transform="matrix(0.06172839506172839,0,0,0.06172839506172839,43.148148148148145,0)" xlink:href="#aO"/><use transform="matrix(0.06172839506172839,0,0,0.06172839506172839,55.49382716049382,0)" xlink:href="#aF"/><use transform="matrix(0.06172839506172839,0,0,0.06172839506172839,66.60493827160494,0)" xlink:href="#aQ"/><use transform="matrix(0.06172839506172839,0,0,0.06172839506172839,78.95061728395062,0)" xlink:href="#aN"/><use transform="matrix(0.06172839506172839,0,0,0.06172839506172839,83.82716049382717,0)" xlink:href="#aH"/><use transform="matrix(0.06172839506172839,0,0,0.06172839506172839,90,0)" xlink:href="#aE"/></g><g id="P"><use transform="matrix(0.06172839506172839,0,0,0.06172839506172839,0,0)" xlink:href="#aS"/><use transform="matrix(0.06172839506172839,0,0,0.06172839506172839,6.172839506172839,0)" xlink:href="#aP"/><use transform="matrix(0.06172839506172839,0,0,0.06172839506172839,18.51851851851852,0)" xlink:href="#aT"/><use transform="matrix(0.06172839506172839,0,0,0.06172839506172839,24.691358024691358,0)" xlink:href="#aB"/></g><g id="Q"><use transform="matrix(0.06172839506172839,0,0,0.06172839506172839,0,0)" xlink:href="#aH"/><use transform="matrix(0.06172839506172839,0,0,0.06172839506172839,6.172839506172839,0)" xlink:href="#aG"/><use transform="matrix(0.06172839506172839,0,0,0.06172839506172839,18.51851851851852,0)" xlink:href="#aD"/><use transform="matrix(0.06172839506172839,0,0,0.06172839506172839,30.864197530864196,0)" xlink:href="#aE"/><use transform="matrix(0.06172839506172839,0,0,0.06172839506172839,37.03703703703704,0)" xlink:href="#aW"/><use transform="matrix(0.06172839506172839,0,0,0.06172839506172839,49.382716049382715,0)" xlink:href="#aJ"/><use transform="matrix(0.06172839506172839,0,0,0.06172839506172839,56.72839506172839,0)" xlink:href="#aG"/></g><g id="R"><use transform="matrix(0.06172839506172839,0,0,0.06172839506172839,0,0)" xlink:href="#aF"/><use transform="matrix(0.06172839506172839,0,0,0.06172839506172839,11.11111111111111,0)" xlink:href="#aG"/><use transform="matrix(0.06172839506172839,0,0,0.06172839506172839,23.45679012345679,0)" xlink:href="#aM"/><use transform="matrix(0.06172839506172839,0,0,0.06172839506172839,28.333333333333336,0)" xlink:href="#aG"/><use transform="matrix(0.06172839506172839,0,0,0.06172839506172839,40.67901234567901,0)" xlink:href="#aK"/><use transform="matrix(0.06172839506172839,0,0,0.06172839506172839,51.79012345679013,0)" xlink:href="#aE"/><use transform="matrix(0.06172839506172839,0,0,0.06172839506172839,57.96296296296297,0)" xlink:href="#aN"/><use transform="matrix(0.06172839506172839,0,0,0.06172839506172839,62.83950617283951,0)" xlink:href="#aI"/><use transform="matrix(0.06172839506172839,0,0,0.06172839506172839,75.18518518518519,0)" xlink:href="#aO"/></g><g id="S"><use transform="matrix(0.06172839506172839,0,0,0.06172839506172839,0,0)" xlink:href="#aO"/><use transform="matrix(0.06172839506172839,0,0,0.06172839506172839,12.345679012345679,0)" xlink:href="#aI"/></g><g id="T"><use transform="matrix(0.06172839506172839,0,0,0.06172839506172839,0,0)" xlink:href="#aD"/><use transform="matrix(0.06172839506172839,0,0,0.06172839506172839,12.345679012345679,0)" xlink:href="#aM"/><use transform="matrix(0.06172839506172839,0,0,0.06172839506172839,17.22222222222222,0)" xlink:href="#aE"/><use transform="matrix(0.06172839506172839,0,0,0.06172839506172839,23.39506172839506,0)" xlink:href="#aG"/><use transform="matrix(0.06172839506172839,0,0,0.06172839506172839,35.74074074074074,0)" xlink:href="#aJ"/><use transform="matrix(0.06172839506172839,0,0,0.06172839506172839,43.08641975308642,0)" xlink:href="#aO"/><use transform="matrix(0.06172839506172839,0,0,0.06172839506172839,55.432098765432094,0)" xlink:href="#aD"/><use transform="matrix(0.06172839506172839,0,0,0.06172839506172839,67.77777777777777,0)" xlink:href="#aE"/><use transform="matrix(0.06172839506172839,0,0,0.06172839506172839,73.9506172839506,0)" xlink:href="#aN"/><use transform="matrix(0.06172839506172839,0,0,0.06172839506172839,78.82716049382715,0)" xlink:href="#aL"/><use transform="matrix(0.06172839506172839,0,0,0.06172839506172839,89.93827160493827,0)" xlink:href="#aG"/></g><g id="U"><use transform="matrix(0.06172839506172839,0,0,0.06172839506172839,0,0)" xlink:href="#aL"/><use transform="matrix(0.06172839506172839,0,0,0.06172839506172839,11.11111111111111,0)" xlink:href="#aG"/><use transform="matrix(0.06172839506172839,0,0,0.06172839506172839,23.45679012345679,0)" xlink:href="#aJ"/><use transform="matrix(0.06172839506172839,0,0,0.06172839506172839,30.80246913580247,0)" xlink:href="#aF"/><use transform="matrix(0.06172839506172839,0,0,0.06172839506172839,41.91358024691358,0)" xlink:href="#aN"/><use transform="matrix(0.06172839506172839,0,0,0.06172839506172839,46.79012345679013,0)" xlink:href="#aI"/><use transform="matrix(0.06172839506172839,0,0,0.06172839506172839,59.135802469135804,0)" xlink:href="#aO"/></g><g id="V"><use transform="matrix(0.06172839506172839,0,0,0.06172839506172839,0,0)" xlink:href="#aF"/><use transform="matrix(0.06172839506172839,0,0,0.06172839506172839,11.11111111111111,0)" xlink:href="#aG"/><use transform="matrix(0.06172839506172839,0,0,0.06172839506172839,23.45679012345679,0)" xlink:href="#aM"/><use transform="matrix(0.06172839506172839,0,0,0.06172839506172839,28.333333333333336,0)" xlink:href="#aG"/><use transform="matrix(0.06172839506172839,0,0,0.06172839506172839,40.67901234567901,0)" xlink:href="#aK"/><use transform="matrix(0.06172839506172839,0,0,0.06172839506172839,51.79012345679013,0)" xlink:href="#aE"/><use transform="matrix(0.06172839506172839,0,0,0.06172839506172839,57.96296296296297,0)" xlink:href="#aN"/><use transform="matrix(0.06172839506172839,0,0,0.06172839506172839,62.83950617283951,0)" xlink:href="#aI"/><use transform="matrix(0.06172839506172839,0,0,0.06172839506172839,75.18518518518519,0)" xlink:href="#aO"/></g><g id="W"><use transform="matrix(0.06172839506172839,0,0,0.06172839506172839,0,0)" xlink:href="#aH"/><use transform="matrix(0.06172839506172839,0,0,0.06172839506172839,6.172839506172839,0)" xlink:href="#aJ"/><use transform="matrix(0.06172839506172839,0,0,0.06172839506172839,13.518518518518519,0)" xlink:href="#aI"/><use transform="matrix(0.06172839506172839,0,0,0.06172839506172839,25.864197530864196,0)" xlink:href="#bi"/></g><g id="X"><use transform="matrix(0.06172839506172839,0,0,0.06172839506172839,0,0)" xlink:href="#bi"/><use transform="matrix(0.06172839506172839,0,0,0.06172839506172839,18.456790123456788,0)" xlink:href="#aI"/><use transform="matrix(0.06172839506172839,0,0,0.06172839506172839,30.80246913580247,0)" xlink:href="#aC"/><use transform="matrix(0.06172839506172839,0,0,0.06172839506172839,43.148148148148145,0)" xlink:href="#aG"/><use transform="matrix(0.06172839506172839,0,0,0.06172839506172839,55.49382716049382,0)" xlink:href="#aM"/></g><g id="Y"><use transform="matrix(0.06172839506172839,0,0,0.06172839506172839,0,0)" xlink:href="#bh"/><use transform="matrix(0.06172839506172839,0,0,0.06172839506172839,12.345679012345679,0)" xlink:href="#aD"/><use transform="matrix(0.06172839506172839,0,0,0.06172839506172839,24.691358024691358,0)" xlink:href="#aJ"/><use transform="matrix(0.06172839506172839,0,0,0.06172839506172839,32.03703703703704,0)" xlink:href="#aD"/><use transform="matrix(0.06172839506172839,0,0,0.06172839506172839,44.382716049382715,0)" xlink:href="#bi"/><use transform="matrix(0.06172839506172839,0,0,0.06172839506172839,62.839506172839506,0)" xlink:href="#aG"/><use transform="matrix(0.06172839506172839,0,0,0.06172839506172839,75.18518518518519,0)" xlink:href="#aE"/><use transform="matrix(0.06172839506172839,0,0,0.06172839506172839,81.35802469135803,0)" xlink:href="#aG"/><use transform="matrix(0.06172839506172839,0,0,0.06172839506172839,93.70370370370371,0)" xlink:href="#aJ"/></g><g id="Z"><use transform="matrix(0.06172839506172839,0,0,0.06172839506172839,0,0)" xlink:href="#aF"/><use transform="matrix(0.06172839506172839,0,0,0.06172839506172839,11.11111111111111,0)" xlink:href="#aG"/><use transform="matrix(0.06172839506172839,0,0,0.06172839506172839,23.45679012345679,0)" xlink:href="#aD"/><use transform="matrix(0.06172839506172839,0,0,0.06172839506172839,35.80246913580247,0)" xlink:href="#aJ"/><use transform="matrix(0.06172839506172839,0,0,0.06172839506172839,43.148148148148145,0)" xlink:href="#aK"/><use transform="matrix(0.06172839506172839,0,0,0.06172839506172839,54.25925925925925,0)" xlink:href="#aQ"/></g><g id="aa"><use transform="matrix(0.06172839506172839,0,0,0.06172839506172839,0,0)" xlink:href="#aW"/><use transform="matrix(0.06172839506172839,0,0,0.06172839506172839,12.345679012345679,0)" xlink:href="#aF"/><use transform="matrix(0.06172839506172839,0,0,0.06172839506172839,23.45679012345679,0)" xlink:href="#aG"/><use transform="matrix(0.06172839506172839,0,0,0.06172839506172839,35.80246913580247,0)" xlink:href="#aJ"/></g><g id="ab"><use transform="matrix(0.06172839506172839,0,0,0.06172839506172839,0,0)" xlink:href="#aD"/><use transform="matrix(0.06172839506172839,0,0,0.06172839506172839,12.345679012345679,0)" xlink:href="#aW"/><use transform="matrix(0.06172839506172839,0,0,0.06172839506172839,24.691358024691358,0)" xlink:href="#aE"/><use transform="matrix(0.06172839506172839,0,0,0.06172839506172839,30.864197530864196,0)" xlink:href="#aI"/></g><g id="ac"><use transform="matrix(0.06172839506172839,0,0,0.06172839506172839,0,0)" xlink:href="#bi"/><use transform="matrix(0.06172839506172839,0,0,0.06172839506172839,18.456790123456788,0)" xlink:href="#aD"/><use transform="matrix(0.06172839506172839,0,0,0.06172839506172839,30.80246913580247,0)" xlink:href="#aK"/><use transform="matrix(0.06172839506172839,0,0,0.06172839506172839,41.91358024691358,0)" xlink:href="#aQ"/><use transform="matrix(0.06172839506172839,0,0,0.06172839506172839,54.25925925925926,0)" xlink:href="#aN"/><use transform="matrix(0.06172839506172839,0,0,0.06172839506172839,59.135802469135804,0)" xlink:href="#aO"/><use transform="matrix(0.06172839506172839,0,0,0.06172839506172839,71.48148148148148,0)" xlink:href="#aG"/></g><g id="ad"><use transform="matrix(0.06172839506172839,0,0,0.06172839506172839,0,0)" xlink:href="#aM"/><use transform="matrix(0.06172839506172839,0,0,0.06172839506172839,4.876543209876543,0)" xlink:href="#aG"/><use transform="matrix(0.06172839506172839,0,0,0.06172839506172839,17.22222222222222,0)" xlink:href="#aD"/><use transform="matrix(0.06172839506172839,0,0,0.06172839506172839,29.5679012345679,0)" xlink:href="#aJ"/><use transform="matrix(0.06172839506172839,0,0,0.06172839506172839,36.913580246913575,0)" xlink:href="#aO"/><use transform="matrix(0.06172839506172839,0,0,0.06172839506172839,49.25925925925925,0)" xlink:href="#aN"/><use transform="matrix(0.06172839506172839,0,0,0.06172839506172839,54.1358024691358,0)" xlink:href="#aO"/><use transform="matrix(0.06172839506172839,0,0,0.06172839506172839,66.48148148148148,0)" xlink:href="#aU"/></g><g id="ae"><use transform="matrix(0.06172839506172839,0,0,0.06172839506172839,0,0)" xlink:href="#aF"/><use transform="matrix(0.06172839506172839,0,0,0.06172839506172839,11.11111111111111,0)" xlink:href="#aE"/><use transform="matrix(0.06172839506172839,0,0,0.06172839506172839,17.28395061728395,0)" xlink:href="#aG"/><use transform="matrix(0.06172839506172839,0,0,0.06172839506172839,29.629629629629626,0)" xlink:href="#bh"/></g><g id="af"><use transform="matrix(0.06172839506172839,0,0,0.06172839506172839,0,0)" xlink:href="#bb"/><use transform="matrix(0.06172839506172839,0,0,0.06172839506172839,12.345679012345679,0)" xlink:href="#bd"/></g><g id="ag"><use transform="matrix(0.06172839506172839,0,0,0.06172839506172839,0,0)" xlink:href="#aF"/><use transform="matrix(0.06172839506172839,0,0,0.06172839506172839,11.11111111111111,0)" xlink:href="#aE"/><use transform="matrix(0.06172839506172839,0,0,0.06172839506172839,17.28395061728395,0)" xlink:href="#aG"/><use transform="matrix(0.06172839506172839,0,0,0.06172839506172839,29.629629629629626,0)" xlink:href="#bh"/></g><g id="ah"><use transform="matrix(0.06172839506172839,0,0,0.06172839506172839,0,0)" xlink:href="#bb"/><use transform="matrix(0.06172839506172839,0,0,0.06172839506172839,12.345679012345679,0)" xlink:href="#aD"/><use transform="matrix(0.06172839506172839,0,0,0.06172839506172839,24.691358024691358,0)" xlink:href="#bd"/><use transform="matrix(0.06172839506172839,0,0,0.06172839506172839,35.80246913580247,0)" xlink:href="#aG"/><use transform="matrix(0.06172839506172839,0,0,0.06172839506172839,48.148148148148145,0)" xlink:href="#aF"/><use transform="matrix(0.06172839506172839,0,0,0.06172839506172839,59.25925925925925,0)" xlink:href="#aD"/><use transform="matrix(0.06172839506172839,0,0,0.06172839506172839,71.60493827160494,0)" xlink:href="#aO"/><use transform="matrix(0.06172839506172839,0,0,0.06172839506172839,83.95061728395062,0)" xlink:href="#aF"/><use transform="matrix(0.06172839506172839,0,0,0.06172839506172839,95.06172839506173,0)" xlink:href="#aG"/><use transform="matrix(0.06172839506172839,0,0,0.06172839506172839,107.40740740740742,0)" xlink:href="#aD"/><use transform="matrix(0.06172839506172839,0,0,0.06172839506172839,119.7530864197531,0)" xlink:href="#aJ"/><use transform="matrix(0.06172839506172839,0,0,0.06172839506172839,127.09876543209879,0)" xlink:href="#aK"/><use transform="matrix(0.06172839506172839,0,0,0.06172839506172839,138.2098765432099,0)" xlink:href="#aQ"/></g><g id="ai"><use transform="matrix(0.06172839506172839,0,0,0.06172839506172839,0,0)" xlink:href="#bb"/><use transform="matrix(0.06172839506172839,0,0,0.06172839506172839,12.345679012345679,0)" xlink:href="#aN"/><use transform="matrix(0.06172839506172839,0,0,0.06172839506172839,17.22222222222222,0)" xlink:href="#aO"/><use transform="matrix(0.06172839506172839,0,0,0.06172839506172839,29.5679012345679,0)" xlink:href="#aD"/><use transform="matrix(0.06172839506172839,0,0,0.06172839506172839,41.913580246913575,0)" xlink:href="#aJ"/><use transform="matrix(0.06172839506172839,0,0,0.06172839506172839,49.25925925925925,0)" xlink:href="#bd"/></g><g id="aj"><use transform="matrix(0.06172839506172839,0,0,0.06172839506172839,0,0)" xlink:href="#aO"/><use transform="matrix(0.06172839506172839,0,0,0.06172839506172839,12.345679012345679,0)" xlink:href="#aG"/><use transform="matrix(0.06172839506172839,0,0,0.06172839506172839,24.691358024691358,0)" xlink:href="#aF"/><use transform="matrix(0.06172839506172839,0,0,0.06172839506172839,35.80246913580247,0)" xlink:href="#aE"/><use transform="matrix(0.06172839506172839,0,0,0.06172839506172839,41.97530864197531,0)" xlink:href="#aG"/><use transform="matrix(0.06172839506172839,0,0,0.06172839506172839,54.32098765432099,0)" xlink:href="#aC"/></g><g id="ak"><use transform="matrix(0.06172839506172839,0,0,0.06172839506172839,0,0)" xlink:href="#aF"/><use transform="matrix(0.06172839506172839,0,0,0.06172839506172839,11.11111111111111,0)" xlink:href="#aQ"/><use transform="matrix(0.06172839506172839,0,0,0.06172839506172839,23.45679012345679,0)" xlink:href="#aI"/><use transform="matrix(0.06172839506172839,0,0,0.06172839506172839,35.80246913580247,0)" xlink:href="#aR"/></g><g id="al"><use transform="matrix(0.06172839506172839,0,0,0.06172839506172839,0,0)" xlink:href="#aJ"/><use transform="matrix(0.06172839506172839,0,0,0.06172839506172839,7.345679012345679,0)" xlink:href="#aG"/><use transform="matrix(0.06172839506172839,0,0,0.06172839506172839,19.691358024691358,0)" xlink:href="#aF"/><use transform="matrix(0.06172839506172839,0,0,0.06172839506172839,30.80246913580247,0)" xlink:href="#aW"/><use transform="matrix(0.06172839506172839,0,0,0.06172839506172839,43.148148148148145,0)" xlink:href="#aM"/><use transform="matrix(0.06172839506172839,0,0,0.06172839506172839,48.02469135802469,0)" xlink:href="#aE"/><use transform="matrix(0.06172839506172839,0,0,0.06172839506172839,54.19753086419753,0)" xlink:href="#aF"/></g><g id="am"><use transform="matrix(0.06172839506172839,0,0,0.06172839506172839,0,0)" xlink:href="#aF"/><use transform="matrix(0.06172839506172839,0,0,0.06172839506172839,11.11111111111111,0)" xlink:href="#aG"/><use transform="matrix(0.06172839506172839,0,0,0.06172839506172839,23.45679012345679,0)" xlink:href="#aM"/><use transform="matrix(0.06172839506172839,0,0,0.06172839506172839,28.333333333333336,0)" xlink:href="#aG"/><use transform="matrix(0.06172839506172839,0,0,0.06172839506172839,40.67901234567901,0)" xlink:href="#aK"/><use transform="matrix(0.06172839506172839,0,0,0.06172839506172839,51.79012345679013,0)" xlink:href="#aE"/></g><g id="an"><use transform="matrix(0.06172839506172839,0,0,0.06172839506172839,0,0)" xlink:href="#aF"/><use transform="matrix(0.06172839506172839,0,0,0.06172839506172839,11.11111111111111,0)" xlink:href="#aE"/><use transform="matrix(0.06172839506172839,0,0,0.06172839506172839,17.28395061728395,0)" xlink:href="#aJ"/><use transform="matrix(0.06172839506172839,0,0,0.06172839506172839,24.629629629629626,0)" xlink:href="#aD"/><use transform="matrix(0.06172839506172839,0,0,0.06172839506172839,36.9753086419753,0)" xlink:href="#aE"/></g><g id="ao"><use transform="matrix(0.06172839506172839,0,0,0.06172839506172839,0,0)" xlink:href="#aE"/><use transform="matrix(0.06172839506172839,0,0,0.06172839506172839,6.172839506172839,0)" xlink:href="#aI"/></g><g id="ap"><use transform="matrix(0.06172839506172839,0,0,0.06172839506172839,0,0)" xlink:href="#aG"/><use transform="matrix(0.06172839506172839,0,0,0.06172839506172839,12.345679012345679,0)" xlink:href="#aO"/><use transform="matrix(0.06172839506172839,0,0,0.06172839506172839,24.691358024691358,0)" xlink:href="#aC"/></g><g id="aq"><use transform="matrix(0.06172839506172839,0,0,0.06172839506172839,0,0)" xlink:href="#aG"/><use transform="matrix(0.06172839506172839,0,0,0.06172839506172839,12.345679012345679,0)" xlink:href="#aD"/><use transform="matrix(0.06172839506172839,0,0,0.06172839506172839,24.691358024691358,0)" xlink:href="#aK"/><use transform="matrix(0.06172839506172839,0,0,0.06172839506172839,35.80246913580247,0)" xlink:href="#aQ"/></g><g id="ar"><use transform="matrix(0.06172839506172839,0,0,0.06172839506172839,0,0)" xlink:href="#bh"/><use transform="matrix(0.06172839506172839,0,0,0.06172839506172839,12.345679012345679,0)" xlink:href="#aD"/><use transform="matrix(0.06172839506172839,0,0,0.06172839506172839,24.691358024691358,0)" xlink:href="#aJ"/><use transform="matrix(0.06172839506172839,0,0,0.06172839506172839,32.03703703703704,0)" xlink:href="#aD"/><use transform="matrix(0.06172839506172839,0,0,0.06172839506172839,44.382716049382715,0)" xlink:href="#bi"/></g><g id="as"><use transform="matrix(0.06172839506172839,0,0,0.06172839506172839,0,0)" xlink:href="#aL"/><use transform="matrix(0.06172839506172839,0,0,0.06172839506172839,11.11111111111111,0)" xlink:href="#aD"/><use transform="matrix(0.06172839506172839,0,0,0.06172839506172839,23.45679012345679,0)" xlink:href="#aM"/><use transform="matrix(0.06172839506172839,0,0,0.06172839506172839,28.333333333333336,0)" xlink:href="#aW"/><use transform="matrix(0.06172839506172839,0,0,0.06172839506172839,40.67901234567901,0)" xlink:href="#aG"/></g><g id="at"><use transform="matrix(0.06172839506172839,0,0,0.06172839506172839,0,0)" xlink:href="#aG"/><use transform="matrix(0.06172839506172839,0,0,0.06172839506172839,12.345679012345679,0)" xlink:href="#aD"/><use transform="matrix(0.06172839506172839,0,0,0.06172839506172839,24.691358024691358,0)" xlink:href="#aK"/><use transform="matrix(0.06172839506172839,0,0,0.06172839506172839,35.80246913580247,0)" xlink:href="#aQ"/></g><g id="au"><use transform="matrix(0.06172839506172839,0,0,0.06172839506172839,0,0)" xlink:href="#aK"/><use transform="matrix(0.06172839506172839,0,0,0.06172839506172839,11.11111111111111,0)" xlink:href="#aJ"/><use transform="matrix(0.06172839506172839,0,0,0.06172839506172839,18.45679012345679,0)" xlink:href="#aG"/><use transform="matrix(0.06172839506172839,0,0,0.06172839506172839,30.80246913580247,0)" xlink:href="#aD"/><use transform="matrix(0.06172839506172839,0,0,0.06172839506172839,43.148148148148145,0)" xlink:href="#aE"/><use transform="matrix(0.06172839506172839,0,0,0.06172839506172839,49.32098765432099,0)" xlink:href="#aG"/></g><g id="av"><use transform="matrix(0.06172839506172839,0,0,0.06172839506172839,0,0)" xlink:href="#aO"/><use transform="matrix(0.06172839506172839,0,0,0.06172839506172839,12.345679012345679,0)" xlink:href="#aG"/><use transform="matrix(0.06172839506172839,0,0,0.06172839506172839,24.691358024691358,0)" xlink:href="#aR"/></g><path fill="#333" d="M24-231v-30h32v30H24zM-9 49c24 4 33-6 33-30v-209h32V24c2 40-23 58-65 49V49" id="bj"/><g id="aw"><use transform="matrix(0.06172839506172839,0,0,0.06172839506172839,0,0)" xlink:href="#bh"/><use transform="matrix(0.06172839506172839,0,0,0.06172839506172839,12.345679012345679,0)" xlink:href="#aJ"/><use transform="matrix(0.06172839506172839,0,0,0.06172839506172839,19.691358024691358,0)" xlink:href="#aI"/><use transform="matrix(0.06172839506172839,0,0,0.06172839506172839,32.03703703703704,0)" xlink:href="#bj"/><use transform="matrix(0.06172839506172839,0,0,0.06172839506172839,36.91358024691358,0)" xlink:href="#aG"/><use transform="matrix(0.06172839506172839,0,0,0.06172839506172839,49.25925925925926,0)" xlink:href="#aK"/><use transform="matrix(0.06172839506172839,0,0,0.06172839506172839,60.37037037037037,0)" xlink:href="#aE"/></g><path fill="#333" d="M140-251c80 0 125 45 125 126S219 4 139 4C58 4 15-44 15-125s44-126 125-126zm-1 214c52 0 73-35 73-88 0-50-21-86-72-86-52 0-73 35-73 86s22 88 72 88" id="bk"/><path fill="#333" d="M135-194c53 0 70 44 70 98 0 56-19 98-73 100-31 1-45-17-59-34 3 33 2 69 2 105H25l-1-265h48c2 10 0 23 3 31 11-24 29-35 60-35zM114-30c33 0 39-31 40-66 0-38-9-64-40-64-56 0-55 130 0 130" id="bl"/><path fill="#333" d="M185-48c-13 30-37 53-82 52C43 2 14-33 14-96s30-98 90-98c62 0 83 45 84 108H66c0 31 8 55 39 56 18 0 30-7 34-22zm-45-69c5-46-57-63-70-21-2 6-4 13-4 21h74" id="bm"/><path fill="#333" d="M135-194c87-1 58 113 63 194h-50c-7-57 23-157-34-157-59 0-34 97-39 157H25l-1-190h47c2 12-1 28 3 38 12-26 28-41 61-42" id="bn"/><path fill="#333" d="M137-138c1-29-70-34-71-4 15 46 118 7 119 86 1 83-164 76-172 9l43-7c4 19 20 25 44 25 33 8 57-30 24-41C81-84 22-81 20-136c-2-80 154-74 161-7" id="bo"/><g id="ax"><use transform="matrix(0.08024691358024691,0,0,0.08024691358024691,0,0)" xlink:href="#bk"/><use transform="matrix(0.08024691358024691,0,0,0.08024691358024691,22.469135802469136,0)" xlink:href="#bl"/><use transform="matrix(0.08024691358024691,0,0,0.08024691358024691,40.04320987654321,0)" xlink:href="#bm"/><use transform="matrix(0.08024691358024691,0,0,0.08024691358024691,56.092592592592595,0)" xlink:href="#bn"/><use transform="matrix(0.08024691358024691,0,0,0.08024691358024691,73.66666666666667,0)" xlink:href="#bo"/></g><path fill="#333" d="M231 0h-52l-39-155L100 0H48L-1-190h46L77-45c9-52 24-97 36-145h53l37 145 32-145h46" id="bp"/><g id="ay"><use transform="matrix(0.08024691358024691,0,0,0.08024691358024691,0,0)" xlink:href="#bn"/><use transform="matrix(0.08024691358024691,0,0,0.08024691358024691,17.574074074074073,0)" xlink:href="#bm"/><use transform="matrix(0.08024691358024691,0,0,0.08024691358024691,33.623456790123456,0)" xlink:href="#bp"/></g><path fill="#333" d="M115-3C79 11 28 4 28-45v-112H4v-33h27l15-45h31v45h36v33H77v99c-1 23 16 31 38 25v30" id="bq"/><path fill="#333" d="M133-34C117-15 103 5 69 4 32 3 11-16 11-54c-1-60 55-63 116-61 1-26-3-47-28-47-18 1-26 9-28 27l-52-2c7-38 36-58 82-57s74 22 75 68l1 82c-1 14 12 18 25 15v27c-30 8-71 5-69-32zm-48 3c29 0 43-24 42-57-32 0-66-3-65 30 0 17 8 27 23 27" id="br"/><path fill="#333" d="M135-194c52 0 70 43 70 98 0 56-19 99-73 100-30 1-46-15-58-35L72 0H24l1-261h50v104c11-23 29-37 60-37zM114-30c31 0 40-27 40-66 0-37-7-63-39-63s-41 28-41 65c0 36 8 64 40 64" id="bs"/><g id="az"><use transform="matrix(0.08024691358024691,0,0,0.08024691358024691,0,0)" xlink:href="#bq"/><use transform="matrix(0.08024691358024691,0,0,0.08024691358024691,9.549382716049383,0)" xlink:href="#br"/><use transform="matrix(0.08024691358024691,0,0,0.08024691358024691,25.598765432098762,0)" xlink:href="#bs"/></g></defs></g></svg>